<?xml version="1.0" encoding="UTF-8" standalone="no"?>
<!-- Created with Inkscape (http://www.inkscape.org/) -->

<svg
   xmlns:dc="http://purl.org/dc/elements/1.1/"
   xmlns:cc="http://creativecommons.org/ns#"
   xmlns:rdf="http://www.w3.org/1999/02/22-rdf-syntax-ns#"
   xmlns:svg="http://www.w3.org/2000/svg"
   xmlns="http://www.w3.org/2000/svg"
   xmlns:xlink="http://www.w3.org/1999/xlink"
   xmlns:sodipodi="http://sodipodi.sourceforge.net/DTD/sodipodi-0.dtd"
   xmlns:inkscape="http://www.inkscape.org/namespaces/inkscape"
   id="svg3036"
   version="1.1"
   inkscape:version="0.48.5 r10040"
   width="573.69019"
   height="501"
   sodipodi:docname="AhlandCDaatsiin.svg"
   inkscape:export-filename="/home/snordhoff/versioning/git/langsci/books/ACAL46/5120673rswtws/figures/AhlandCDaatsiin.png"
   inkscape:export-xdpi="260.10001"
   inkscape:export-ydpi="260.10001">
  <metadata
     id="metadata3042">
    <rdf:RDF>
      <cc:Work
         rdf:about="">
        <dc:format>image/svg+xml</dc:format>
        <dc:type
           rdf:resource="http://purl.org/dc/dcmitype/StillImage" />
        <dc:title />
      </cc:Work>
    </rdf:RDF>
  </metadata>
  <defs
     id="defs3040" />
  <sodipodi:namedview
     pagecolor="#ffffff"
     bordercolor="#666666"
     borderopacity="1"
     objecttolerance="10"
     gridtolerance="10"
     guidetolerance="10"
     inkscape:pageopacity="0"
     inkscape:pageshadow="2"
     inkscape:window-width="1680"
     inkscape:window-height="1022"
     id="namedview3038"
     showgrid="false"
     inkscape:zoom="1.4669418"
     inkscape:cx="293.95566"
     inkscape:cy="232.57029"
     inkscape:window-x="1680"
     inkscape:window-y="0"
     inkscape:window-maximized="1"
     inkscape:current-layer="layer4"
     fit-margin-top="0"
     fit-margin-left="0"
     fit-margin-right="0"
     fit-margin-bottom="0" />
  <g
     inkscape:groupmode="layer"
     id="layer10"
     inkscape:label="Layer"
     transform="translate(-1.6514275,-0.7797565)"
     style="display:none">
    <rect
       style="fill:#ffffff;fill-opacity:1;stroke:#000000;stroke-width:0.09268326;stroke-miterlimit:4;stroke-opacity:1;stroke-dasharray:none;stroke-dashoffset:0"
       id="rect6562"
       width="575.9248"
       height="500.44757"
       x="0.80935991"
       y="2.1009481"
       inkscape:export-xdpi="260.10001"
       inkscape:export-ydpi="260.10001" />
  </g>
  <g
     inkscape:groupmode="layer"
     id="layer1"
     inkscape:label="orig"
     style="display:none"
     transform="translate(-1.6514275,-0.7797565)">
    <image
       y="-0.33286616"
       x="0.1869078"
       id="image4251"
       xlink:href="file:///home/snordhoff/versioning/git/langsci/books/ACAL46/5120673rswtws/figures/AhlandCDaatsiintemplate-img1.png"
       height="505"
       width="577" />
  </g>
  <g
     inkscape:groupmode="layer"
     id="layer6"
     inkscape:label="parks"
     style="display:inline"
     transform="translate(-1.6514275,-0.7797565)">
    <text
       xml:space="preserve"
       style="font-size:12px;font-style:normal;font-variant:normal;font-weight:normal;font-stretch:normal;text-align:start;line-height:125%;letter-spacing:0px;word-spacing:0px;writing-mode:lr-tb;text-anchor:start;fill:#007500;fill-opacity:1;stroke:none;font-family:Linux Biolinum O;-inkscape-font-specification:Linux Biolinum O"
       x="121.16196"
       y="72.896896"
       id="text4832"
       sodipodi:linespacing="125%"><tspan
         sodipodi:role="line"
         id="tspan4834"
         x="121.16196"
         y="72.896896">Dinder </tspan><tspan
         sodipodi:role="line"
         x="121.16196"
         y="87.896896"
         id="tspan4836">National</tspan><tspan
         sodipodi:role="line"
         x="121.16196"
         y="102.8969"
         id="tspan4838">Park</tspan></text>
    <text
       xml:space="preserve"
       style="font-size:12px;font-style:normal;font-variant:normal;font-weight:normal;font-stretch:normal;text-align:start;line-height:125%;letter-spacing:0px;word-spacing:0px;writing-mode:lr-tb;text-anchor:start;fill:#007500;fill-opacity:1;stroke:none;font-family:Linux Biolinum O;-inkscape-font-specification:Linux Biolinum O"
       x="160.72505"
       y="137.80508"
       id="text4840"
       sodipodi:linespacing="125%"><tspan
         sodipodi:role="line"
         id="tspan4842"
         x="160.72505"
         y="137.80508">Alatish</tspan><tspan
         sodipodi:role="line"
         x="160.72505"
         y="152.80508"
         id="tspan4844">National</tspan><tspan
         sodipodi:role="line"
         x="160.72505"
         y="167.80508"
         id="tspan4846">Park</tspan></text>
  </g>
  <g
     inkscape:groupmode="layer"
     id="layer2"
     inkscape:label="roads"
     style="display:none"
     transform="translate(-1.6514275,-0.7797565)" />
  <g
     inkscape:groupmode="layer"
     id="layer3"
     inkscape:label="rivers"
     style="opacity:0.80373828;display:inline"
     transform="translate(-1.6514275,-0.7797565)">
    <g
       transform="translate(-0.81460853,-1.2202435)"
       id="g3083"
       style="stroke-width:1;stroke-miterlimit:4;stroke-dasharray:none"
       inkscape:export-xdpi="260.10001"
       inkscape:export-ydpi="260.10001">
      <path
         style="fill:#51cd39;fill-opacity:0.3244681;stroke:#00ed00;stroke-width:1;stroke-miterlimit:4;stroke-opacity:1;stroke-dasharray:none"
         d="m 137.21271,170.88106 c 2.48856,-3.01741 5.59293,-7.57795 7.71393,-11.9977 -1.75877,-10.89236 7.86503,-14.40987 12.96775,-27.54154 l 2.07629,-5.68249 c 0.0243,-3.16368 0.40529,0.007 2.26308,-0.0995 0.3731,-1.56506 3.34252,-7.73917 6.70876,-13.8218 3.45182,-6.23728 8.71178,-13.329508 10.62651,-16.280953 m 0.79838,1.660319 c 2.28509,3.266804 4.78852,10.514364 11.2836,11.936694 8.30407,3.01167 3.70557,7.10257 3.70557,8.96222 0,1.33333 0.31684,2 -1.01649,2 1.89508,4.23807 7.62023,11.62695 6.5162,14.84356 1.07677,3.30322 0.97288,5.38504 2.36206,7.48543 11.83344,5.78895 1.51595,15.19119 -8.13823,24.67715 -3.35209,4.08992 -5.72418,6.20901 -9.58167,7.70991 -0.60794,4.1652 -13.38913,16.84821 -25.25116,16.12404 -3.575,0.4507 -11.47874,0.012 -14.09124,-0.15567 -3.021,-0.19385 -4.72232,-0.51429 -5.4564,-1.4505 -0.30105,-0.38394 -1.13487,-17.52349 -1.13487,-18.14831 l -2.51342,-0.18424 c 1.4867,0 -4.35715,5.18395 -6.02776,6.57043 -1.41758,1.17649 -22.17942,11.90938 -20.76184,12.7027 0,0 -2.46535,-2.48271 -1.82503,-0.81407 0.95067,2.47741 -0.90173,3.53614 -3.87423,-0.84548 -1.58575,-2.3375 -3.32345,-4.59592 -3.875,-5 -0.66616,-0.48804 -0.6641,-0.72966 0,-0.75 0.55762,-0.0171 0.505,-0.37158 -0.125,-0.78125 -1.819458,-1.18327 -18.375,-26.94285 -18.375,-28.59375 0,-0.82744 0.442771,-1.76867 0.96875,-2.09375 0.525979,-0.32507 0.667811,-1.28051 0.34375,-2.125 -0.324061,-0.84449 -0.111806,-2.51835 0.46875,-3.71875 0.580556,-1.2004 1.323532,-4.6625 1.625,-7.6875 2.646917,-26.55971 4.525858,-35 7.8125,-35 0.641595,0 3.379912,-2.3625 6.09375,-5.25 l 6.18885,-10.40837 1.5299,-2.40413 c 2.47126,-5.732131 7.21699,-20.491423 7.90625,-25.53125 2.10869,-15.418566 5.21501,-20.768597 15.90625,-20.9375 2.99355,-0.04729 6.57792,0.313216 10.90625,0.96875 11.77782,1.783773 20.78916,1.984963 28.125,0.59375 3.9403,-0.747263 8.39753,-0.509573 19.25,1 12.17748,1.693881 14.99126,2.441766 20.25,5.375 4.81107,2.683533 8.03571,3.635975 15.125,4.5 13.24437,1.614191 16.57883,1.391654 22.09375,-1.40625 2.70571,-1.372698 6.19572,-8.061259 6.64601,-8.063559 0.4503,-0.0023 3.5992,8.348799 3.21587,12.886299 -0.50986,6.035213 0.66195,11.501583 -0.67673,12.78178 -2.02289,1.934558 -4.52443,9.096788 -4.52443,7.549906 0,-2.052348 -13.91083,-8.206513 -21.47216,-5.640243 -4.66956,1.58482 -7.40302,3.495292 -9.32274,3.111347 -1.74043,-0.348087 -8.8414,1.980335 -8.8414,2.569856 -25.58288,-0.04792 -13.22469,0.175963 -20.60475,9.400188 -0.68177,0.227257 -7.74082,0.225223 -7.74082,0.756827 0,0.509058 -0.17483,5.509471 -3.83629,10.809514 -0.16217,0.234744 0.7436,1.674221 0.7436,1.674221 z M 24.18749,190.90625 c -0.996875,0 -1.99375,0.0417 -2.75,0.15625 -1.5125,0.22912 -0.275,0.40625 2.75,0.40625 3.025,0 4.2625,-0.17713 2.75,-0.40625 -0.75625,-0.11456 -1.753125,-0.15625 -2.75,-0.15625 z"
         id="path3097"
         inkscape:connector-curvature="0"
         sodipodi:nodetypes="cccccscccsccccccssccsccssccscsssscccssssssssssssssccsccsssss"
         transform="translate(0.81460853,1.2202435)" />
      <path
         style="fill:#188fd2;stroke:none"
         d="M 63,251.04705 C 63,248.96298 60.601055,245 59.339485,245 c -1.593227,0 -1.674437,0.98881 -0.364236,4.4349 C 59.895897,251.85639 63,253.09977 63,251.04705 z"
         id="path4051"
         inkscape:connector-curvature="0"
         sodipodi:nodetypes="ssss" />
      <path
         style="fill:none;stroke:#1712f1;stroke-width:2;stroke-miterlimit:4;stroke-opacity:1;stroke-dasharray:none"
         d="m 294.20423,240.54669 c -1.31054,-1.55628 -7.20786,6.56791 -8.1632,10.95331 -0.67823,3.11336 -2.95216,5.79644 -2.9837,6.76987 -0.0315,0.97343 -1.18233,3.55199 -2.55733,5.73013 -1.375,2.17814 -2.5,4.6442 -2.5,5.48013 0,0.8532 -0.87727,1.51987 -2,1.51987 -1.1,0 -2,0.64468 -2,1.43261 0,0.78794 -0.89454,1.71653 -1.98787,2.06354 -1.14071,0.36205 -2.33774,1.98889 -2.80884,3.81739 -0.71247,2.76533 -1.33822,3.25254 -4.73473,3.68646 -3.68973,0.47138 -3.96163,0.74328 -4.75001,4.75 -0.76092,3.86714 -1.10588,4.25 -3.82942,4.25 -2.42668,0 -3.1911,0.56779 -4.03897,3 -0.66771,1.91538 -1.73353,3 -2.94799,3 -1.04619,0 -1.90217,0.37797 -1.90217,0.83994 0,0.46197 -1.84503,1.44885 -4.10006,2.19308 -3.92427,1.29513 -4.18395,1.2484 -6.05677,-1.08994 -1.07619,-1.34369 -2.81927,-4.36514 -3.87351,-6.71432 -2.33318,-5.19907 -3.41956,-5.68695 -8.59633,-3.86048 -2.75093,0.97058 -5.37846,1.17937 -8.24512,0.65516 -4.94791,-0.90478 -5.29134,-1.17831 -6.71114,-5.34521 -0.80089,-2.35046 -1.77757,-3.26064 -3.75,-3.49465 C 204.20018,280.00955 203,280.3071 203,280.84482 c 0,0.53771 -3.23451,4.1676 -7.18779,8.06642 -7.04818,6.95108 -7.28859,7.08876 -12.37755,7.08876 -6.48995,0 -7.63782,-1.23868 -6.80158,-7.33965 C 177.55693,281.9201 176.40363,281 167.03119,281 159.65674,281 153,282.88227 153,284.96749 c 0,0.45155 -1.24043,2.14888 -2.75651,3.77185 -1.51608,1.62297 -3.83316,5.24954 -5.14906,8.05904 -1.93578,4.13297 -2.98455,5.23106 -5.49349,5.75181 -1.70552,0.35399 -7.86752,1.71857 -10.1437,1.20748"
         id="path4116"
         inkscape:connector-curvature="0"
         sodipodi:nodetypes="cscssssssssssssssssssssssssssssc" />
      <path
         style="fill:none;stroke:#1712f1;stroke-width:1;stroke-miterlimit:4;stroke-opacity:1;stroke-dasharray:none"
         d="m 129.45724,303.75767 c -0.45724,-3.01012 -3.95376,1.70265 -0.19286,0.37469"
         id="path4049"
         inkscape:connector-curvature="0"
         sodipodi:nodetypes="cc" />
      <path
         style="fill:none;stroke:#1712f1;stroke-width:2;stroke-miterlimit:4;stroke-opacity:1;stroke-dasharray:none"
         d="M 190.10519,433.32889 C 185.51717,434.98794 184,433.57678 184,430.42282 c 0,-1.34332 -0.9,-3.213 -2,-4.15485 -1.1,-0.94185 -2,-2.73744 -2,-3.99021 C 180,420.51482 179.43495,420 177.5,420 c -1.375,0 -2.5,-0.45 -2.5,-1 0,-0.55 -1.17,-1 -2.6,-1 -1.65264,0 -3.91387,-1.31387 -6.20587,-3.60587 -3.50243,-3.50243 -3.76592,-3.58777 -9.18433,-2.97475 -4.78059,0.54086 -5.89536,0.33589 -7.79413,-1.43308 C 147.99705,408.85098 147,407.37287 147,406.70159 c 0,-0.67127 -0.95148,-1.81471 -2.11441,-2.54097 -1.91508,-1.19599 -2.05126,-1.90212 -1.44458,-7.49054 1.73242,-15.95811 -1.16071,-27.17679 -7.52979,-29.19826 C 134.86005,367.13819 134,366.30015 134,365.60951 134,363.64605 124.5319,354 122.60466,354 c -1.53917,0 -1.43101,-0.99182 -0.80249,-7.37029 0.44959,-4.56263 1.54004,-8.62234 3.0121,-11.21394 1.81992,-3.20404 1.96393,-4.75487 1.49763,-8.15684 -0.41518,-3.0291 -0.065,-5.47994 1.17608,-8.23228 1.10781,-2.45668 1.46951,-4.59218 0.96932,-5.72287 -1.65264,-3.7358 -2.21411,-17.97979 -1.07627,-27.30378 0.78792,-6.45658 0.77461,-6.50835 -1.99327,-7.75 -1.53257,-0.6875 -3.55663,-1.25 -4.49792,-1.25 -1.03377,0 -2.55667,-1.74604 -3.84608,-4.4096 -1.61405,-3.33419 -3.08563,-4.79011 -6.034,-5.96982 -5.79415,-2.31836 -21.723247,-1.24943 -28.03292,-1.24943 -4.518102,0 -6.506903,-0.62705 -7.998588,-2.46856 -1.002419,-1.2375 -3.584804,-1.59433 -4.937257,-1.59433"
         id="path4110"
         inkscape:connector-curvature="0"
         sodipodi:nodetypes="csssssssssssssssssscssssssssc" />
      <path
         style="fill:none;stroke:#1712f1;stroke-width:2;stroke-miterlimit:4;stroke-opacity:1;stroke-dasharray:none"
         d="m 121.97655,345.816 c -2.68956,-0.0479 -2.37432,-0.58662 -3.64489,1.55105 -0.8372,1.40855 -3.17349,3.06125 -4.81351,3.79637 -4.31767,1.93534 -10.25462,10.27597 -10.70945,15.04537 -0.20537,2.15349 0.0448,7.50601 0.5559,11.89449 0.70972,6.09376 0.62268,8.55198 -0.36839,10.4038 -1.04704,1.95641 -1.05353,2.71893 -0.0336,3.94787 1.66526,2.00651 0.57788,7.74594 -1.89079,9.98006 -1.03899,0.94027 -2.444607,3.05076 -3.123597,4.68999 -0.764867,1.84655 -2.796925,3.76417 -5.341375,5.04056 -2.258767,1.13308 -5.073087,2.94434 -6.254046,4.02503 -1.461785,1.33767 -3.217457,1.86027 -5.5,1.63715 -3.219746,-0.31473 -3.3651,-0.17923 -3.662704,3.41449 -0.245665,2.96653 0.220722,4.234 2.25,6.11467 C 80.848044,428.66174 82,430.19209 82,430.75768 c 0,0.56559 0.675,1.28736 1.5,1.60395 1.93811,0.74372 1.93811,5.02988 0,6.63837 -1.427232,1.1845 -2.135825,5 -0.928571,5"
         id="path4102"
         inkscape:connector-curvature="0"
         sodipodi:nodetypes="cssssssssssssssssc" />
      <path
         style="fill:none;stroke:#1712f1;stroke-width:1;stroke-miterlimit:4;stroke-opacity:1;stroke-dasharray:none"
         d="m 82.571429,444 c 0.393256,0 0.587553,0.99272 1.304555,0.15825"
         id="path4100"
         inkscape:connector-curvature="0" />
      <path
         style="fill:none;stroke:#1712f1;stroke-width:2;stroke-miterlimit:4;stroke-opacity:1;stroke-dasharray:none"
         d="m 226.58971,502 c 2.12684,0 5.15469,-3.79654 5.98145,-7.5 0.90199,-4.04049 3.38369,-8.81498 5.10573,-9.82287 2.15793,-1.26299 0.69474,-12.49866 -2.01454,-15.46948 -1.74673,-1.91534 -1.89087,-2.61208 -0.87645,-4.23643 1.80833,-2.89559 1.52596,-4.33664 -1.94322,-9.91739 -2.87762,-4.62913 -3.30538,-4.94507 -4.82874,-3.56645 -2.16168,1.9563 -3.91434,1.91274 -6.1981,-0.15405 -1.01291,-0.91666 -3.29834,-1.66455 -5.07875,-1.66255 -1.7804,0.002 -3.75336,-0.69664 -4.38436,-1.5531 -0.77297,-1.04915 -2.41716,-1.46551 -5.03956,-1.27616 -2.90129,0.20948 -4.36724,-0.24378 -5.75772,-1.78025 C 200.52947,443.92757 198.89009,443 197.9124,443 c -0.97769,0 -2.06327,-0.9 -2.4124,-2 -0.34913,-1.1 -1.05445,-2 -1.56739,-2 C 193.41968,439 193,438.1313 193,437.06955 c 0,-1.2406 -3.83226,-3.59007 -2.3863,-3.79543"
         id="path4090"
         inkscape:connector-curvature="0"
         sodipodi:nodetypes="csssssssssssssssc" />
      <path
         style="fill:none;stroke:#1712f1;stroke-width:2;stroke-miterlimit:4;stroke-opacity:1;stroke-dasharray:none"
         d="m 189.99552,433.27411 c 1.96016,-0.27839 7.54342,0.54959 7.80674,-4.02411 0.34279,-5.954 1.97389,-6.78712 6.42821,-3.28335 3.22185,2.53431 10.24213,3.71594 12.23765,2.05981 0.81342,-0.67508 1.76918,-2.77446 2.1239,-4.66527 0.49226,-2.62397 1.56203,-3.96144 4.51876,-5.64952 2.24865,-1.28382 3.87752,-2.97155 3.88152,-4.02294 0.007,-1.57994 0.58361,-1.72491 4.51678,-1.1351 2.95939,0.44379 5.00486,0.26472 5.95163,-0.52102 1.1375,-0.94404 2.68274,-0.75688 7.30749,0.88509 7.2704,2.58129 15.88262,2.72277 18.87384,0.31006 1.17812,-0.95027 2.89449,-3.22373 3.81414,-5.05214 0.94137,-1.87158 2.87235,-3.74279 4.41858,-4.2818 2.66758,-0.92993 5.12524,-5.33175 5.12524,-9.17963 0,-0.9041 0.84055,-2.09367 1.8679,-2.64349 1.02734,-0.54982 2.12646,-2.2925 2.44249,-3.87263 0.33631,-1.68156 2.04986,-3.99821 4.1321,-5.58641 C 288.43957,380.32568 289,379.28818 289,376.02583 289,370.29929 292.91096,366 298.12028,366 c 4.74447,0 5.74576,1.72533 3.35246,5.77678 -1.58335,2.68048 -1.58761,3.1004 -0.0614,6.05178 1.46523,2.83343 2.1093,3.17144 6.04314,3.17144 3.66923,0 5.0296,0.59085 8.16188,3.54497 4.44744,4.19448 7.72495,4.32418 8.18858,0.32405 0.25995,-2.24285 0.92137,-2.72955 4.48361,-3.29917 2.6099,-0.41734 2.76453,-0.11977 2.98296,0.53552 0.19235,0.57704 3.15083,1.82189 3.92999,1.82189 0.77917,0 2.18939,-0.28049 2.18939,0.32112 0,0.73799 0.23974,0.71503 3.62146,0.24992 4.37131,-0.60121 5.23458,-0.41823 6.75,1.43075 1.33387,1.62746 3.30554,2.26413 8.48501,2.73989 3.75393,0.34482 7.2465,1.2212 7.87245,1.97542 0.61879,0.7456 2.35929,1.35564 3.86778,1.35564 1.50848,0 3.88058,0.89506 5.27133,1.98902 1.49587,1.17666 5.27022,2.37729 9.24116,2.93964 3.69189,0.52284 6.98515,1.22324 7.31837,1.55645 0.33321,0.33322 0.0604,1.48538 -0.6063,2.56037 -0.66668,1.07499 -1.7704,2.85452 -2.4527,3.95452 -0.98739,1.59187 -0.98739,2.40536 0,3.98643 0.6823,1.09254 1.24055,2.75541 1.24055,3.69528 0,2.50357 5.01453,7.31829 7.62199,7.31829 3.31731,0 7.37317,1.76503 7.41128,3.22525 0.057,2.18498 3.6885,5.77475 5.84184,5.77475 1.12999,0 2.53619,-0.9 3.12489,-2 1.26942,-2.37193 7.10901,-2.7785 8.90066,-0.61969 0.63006,0.75917 3.78948,1.96686 7.02094,2.68375 5.03923,1.11795 6.06772,1.73983 7.22689,4.3697 0.74333,1.68643 2.36401,3.51045 3.60151,4.05337 1.2375,0.54292 2.25,1.55542 2.25,2.25 0,0.69458 0.56675,1.26287 1.25945,1.26287 0.6927,0 1.82152,0.9 2.50848,2 0.68696,1.1 1.87206,2 2.63356,2 0.76149,0 1.64355,0.675 1.96014,1.5 0.31658,0.825 1.50385,1.5 2.63837,1.5 1.13452,0 2.32179,0.675 2.63837,1.5 0.60671,1.58104 9.36163,2.2426 9.36163,0.7074 0,-0.43592 2.09379,-1.35259 4.65287,-2.03704 2.55908,-0.68445 6.39661,-2.62552 8.52783,-4.31348 3.25273,-2.57621 4.4325,-2.96442 7.34713,-2.41764 2.98218,0.55946 3.47217,0.38079 3.47217,-1.26612 0,-1.47075 0.95261,-2.06983 4.08868,-2.57131 2.24877,-0.35959 6.58611,-2.32961 9.63853,-4.37781 8.98006,-6.02569 12.64781,-8.05568 14.77279,-8.17628 1.1,-0.0624 3.77852,-1.88947 5.95226,-4.06009 3.58239,-3.57724 4.30563,-3.89007 7.72814,-3.34279 C 534.96484,418.4099 541,415.79284 541,412.95308 541,411.33355 541.69946,411 545.09563,411 551.04462,411 555,407.90924 555,403.26065 c 0,-1.98174 0.72262,-4.40166 1.60582,-5.37758 0.88321,-0.97593 2.23205,-5.06098 2.99744,-9.07789 0.76539,-4.01691 1.76763,-7.42881 2.2272,-7.582 1.24915,-0.41638 0.18462,-16.08676 -1.42713,-21.00813 -2.11584,-6.46053 -1.82982,-12.51911 0.69905,-14.8077 3.57024,-3.23103 4.98786,-6.99085 4.28741,-11.37117 -0.46864,-2.93072 -0.18216,-4.70412 1.06817,-6.61237 1.4291,-2.18108 1.51266,-3.08052 0.51088,-5.49903 -0.70808,-1.70947 -0.91884,-4.37774 -0.51558,-6.52733 0.46906,-2.5003 0.0584,-5.55066 -1.31473,-9.76666 -1.09825,-3.37194 -2.52499,-8.1375 -3.17054,-10.59014 -1.4775,-5.61353 -7.20072,-11.27133 -10.55105,-10.43045 -1.49648,0.3756 -2.93849,-0.13175 -4.33028,-1.52354 C 545.939,281.939 544.1,281 543,281 c -1.1,0 -2,-0.37777 -2,-0.83948 0,-1.89071 -5.97528,-3.59302 -13.5,-3.84605 -12.6091,-0.424 -21.91644,-1.39544 -22.95,-2.39538 C 504.0275,273.41359 502.56881,273 501.30847,273 c -1.26034,0 -2.85358,-0.9 -3.54054,-2 -0.96124,-1.53919 -2.33203,-2 -5.94946,-2 -2.58524,0 -4.97855,-0.45 -5.31847,-1 -0.33992,-0.55 -2.16648,-1 -4.05902,-1 C 480.049,267 479,266.54272 479,265.5 c 0,-0.825 -0.6199,-1.5 -1.37756,-1.5 -0.75765,0 -1.93775,-0.675 -2.62244,-1.5 -0.68469,-0.825 -2.25969,-1.5 -3.5,-1.5 -1.24031,0 -2.81531,-0.675 -3.5,-1.5 -0.68469,-0.825 -1.86554,-1.5 -2.62411,-1.5 -0.75857,0 -2.99568,-2.25 -4.97136,-5 -1.97568,-2.75 -3.93167,-5 -4.34665,-5 -0.41497,0 -1.5166,-1.6875 -2.44806,-3.75 -3.11573,-6.89907 -2.10776,-4.63149 -3.88154,-4.63149 l -2.72563,-4.68549 c -0.55588,1.26293 -30.04998,-6.66794 -30.2676,-17.13508"
         id="path4088"
         inkscape:connector-curvature="0"
         sodipodi:nodetypes="cssssscsssssssssssscsssssssssssssssccsssscsssssssssssssssssssscssssssssssssssssssssssssssssssssssssccc" />
      <path
         style="fill:#95f0f0;fill-opacity:1;stroke:#2a2de4;stroke-width:1;stroke-miterlimit:4;stroke-opacity:1;stroke-dasharray:none"
         d="m 365.52719,180.79035 c -1.60103,-0.22931 -1.96616,-0.92102 -1.73688,-3.29035 m 0,0 c 0.15967,-1.65 -1.53198,-7.92423 -1.35508,-12.87423 0.61859,-17.30965 8.47526,-30.94567 15.78264,-33.16312 1.25517,-0.38089 3.22709,-1.55579 4.38204,-2.6109 2.38524,-2.17904 3.13864,-1.63587 5.50098,3.96595 1.22183,2.89733 1.77923,3.263 4.39911,2.88597 1.65,-0.23745 4.04473,0.044 5.32161,0.62545 2.62888,1.19709 4.1363,-0.23559 4.16308,-3.95668 0.0223,-3.09666 2.55517,-4.72201 7.85108,-5.038 4.45232,-0.26566 11.1834,-1.31938 17.66423,-2.76526 2.7456,-0.61254 3.34228,-0.21984 7.03621,4.63076 2.21991,2.91503 4.65652,6.87506 5.41469,8.80006 0.75817,1.925 1.97938,4.21043 2.71379,5.07874 0.73442,0.86831 1.33531,2.11993 1.33531,2.78139 0,0.66145 0.675,1.46166 1.5,1.77824 1.8816,0.72204 1.8816,5.07012 0,8.36163 -0.78602,1.375 -1.44508,3.45181 -1.46456,4.61514 -0.0195,1.16333 -0.86682,3.18833 -1.88295,4.5 -1.01613,1.31167 -2.16765,3.69389 -2.55894,5.2938 -0.39129,1.59992 -2.29376,4.49127 -4.2277,6.42521 -3.15332,3.15332 -3.38973,3.75272 -2.29032,5.80697 0.97491,1.82165 0.96524,2.60483 -0.0472,3.82479 C 432.32808,187.30966 431.205,188 430.53258,188 c -2.83572,0 -6.36602,6.18603 -8.56034,15 -0.47925,1.925 -1.43241,5.75 -2.11813,8.5 -1.67839,6.73095 -2.62881,7.33069 -8.33621,5.26034 l -4e-5,0 c -1.64018,-0.59497 -3.58482,-1.68445 -4.32143,-2.42105 C 406.45982,213.60268 405.24084,213 404.48759,213 c -2.43506,0 -2.75306,-2.08489 -0.93346,-6.12003 1.35598,-3.00703 1.50181,-4.22403 0.6127,-5.11314 C 403.52507,201.12507 403,198.95974 403,196.95499 c 0,-2.33309 -0.69583,-4.27473 -1.93328,-5.39461 -1.75384,-1.5872 -2.99245,-1.65278 -13.34531,-0.70655 -6.27661,0.57367 -11.97207,1.17875 -12.65656,1.34461 -0.6845,0.16586 -2.65437,-2.26778 -4.3775,-5.40809 -1.99165,-3.62965 -3.87146,-5.81542 -5.16016,-6"
         id="path4043"
         inkscape:connector-curvature="0"
         sodipodi:nodetypes="cccssssssssssssssscsssscsssccsssssssssc" />
      <path
         style="fill:#ffffff;fill-opacity:1;stroke:#0094e1;stroke-width:1;stroke-miterlimit:4;stroke-opacity:1;stroke-dasharray:none"
         d="M 396.75068,181.33214 C 392.13007,180.06817 394.55228,171 399.51051,171 c 1.78557,0 3.15649,1.09635 4.97695,3.98013 3.09535,4.90336 3.14377,6.01604 0.26254,6.03352 -1.2375,0.008 -3.15,0.18992 -4.25,0.40534 -1.1,0.21543 -2.78719,0.17635 -3.74932,-0.0868 z"
         id="path4039"
         inkscape:connector-curvature="0"
         sodipodi:nodetypes="csscscc" />
      <path
         id="path4035"
         style="fill:none;stroke:#1712f1;stroke-width:2;stroke-miterlimit:4;stroke-opacity:1;stroke-dasharray:none"
         d="m 265.3593,166.18099 c -0.82367,0.90756 -23.22946,-4.66926 -24.65267,-5.04466 -5.74691,-1.51584 -18.77136,5.82333 -28.74378,1.53321 -12.71268,-6.27743 -14.15135,13.24413 -24.60415,14.53514 -9.1625,14.83893 -23.63925,17.87177 -40.44034,15.41217 -2.23308,-0.14919 -4.50544,-0.1604 -6.66836,-0.82857 0.45573,-19.79661 -7.0043,-25.01803 -14.94609,-37.78825 -6.63228,-10.57115 -13.60961,-23.34167 -19.5389,-33.78048 -1.51662,-12.38503 10.68657,-29.1166 -6.572832,-37.052159 -1.787379,-1.278827 -5.134864,-0.01671 -7.780946,-2.594582 C 87.916821,77.168472 84.95578,69.826714 81.610925,68.354241 78.906561,67.163726 81.16335,72.813712 78.709491,72.65267 76.567458,69.269229 72.707561,63.191241 71.254468,59.180549 70.899755,58.201503 75.621866,54.633214 74.612732,54.818806 72.923423,55.129491 67.39497,54.584074 66.140914,52.307359 64.573884,49.462445 61.670844,45.474453 60.030181,45.14126 58.31444,44.79282 57.230959,49.932681 54.885693,50 c -1.654002,-4.665308 -0.01256,-12.774732 -3.049992,-9.9521 -4.173741,3.878583 -14.155662,2.277871 -20.425106,2.12992 -2.271619,-6.271848 5.019999,-7.494106 2.685525,-11.071353 -2.411409,-3.69514 -5.252162,4.361974 -7.633785,9.062956 -1.355311,2.675189 -1.864567,-4.343324 -4.394344,-3.906805 -1.563889,0.269852 -3.68172,5.311448 -4.271009,3.576687 C 12.135622,23.173273 6.6839893,23.894482 4.7608289,25.55226"
         inkscape:connector-curvature="0"
         sodipodi:nodetypes="cscccccccsscsssscscssssc" />
      <path
         id="path3091"
         style="fill:none;stroke:#1712f1;stroke-width:2;stroke-miterlimit:4;stroke-opacity:1;stroke-dasharray:none"
         d="m 236.08971,3 c 1.51666,0 4.83676,4.1611631 4.87702,6.1124954 C 240.98503,9.9993679 242.35,12.423745 244,14.5 c 1.65,2.076255 3,4.226023 3,4.777262 0,1.414652 5.64433,5.507614 14.29721,13.360748 7.54437,8.242332 19.26529,14.426113 19.95279,14.766014 0.6875,0.339901 2.6,1.50809 4.25,2.595976 1.65,1.087886 3.675,2.248735 4.5,2.579665 0.825,0.330929 2.4,0.98918 3.5,1.462778 1.98715,0.855555 8.88545,1.786955 17.5,2.362825 2.475,0.165451 6.21266,0.646751 8.30592,1.069557 3.2033,0.647018 4.18625,0.411438 6.20793,-1.487838 2.51294,-2.360786 2.29028,-2.355251 14.74341,-0.366508 2.6046,0.415951 4.51119,0.106033 6.21482,-1.010226 C 347.82373,53.724614 349.84547,53 350.96482,53 352.1072,53 353,52.341977 353,51.5 c 0,-0.933333 0.94444,-1.5 2.5,-1.5 1.375,0 2.50689,-0.5625 2.51531,-1.25 0.0106,-0.863352 0.29775,-0.803609 0.92839,0.193144 0.7446,1.176865 1.39625,1.222993 3.53174,0.25 C 363.91571,48.536915 366.14283,48 367.42461,48 c 1.28177,0 2.85406,-0.630849 3.49396,-1.401887 1.95885,-2.360271 5.85612,-2.765483 9.34006,-0.971118 6.52218,3.359173 9.46579,6.287389 10.07128,10.018592 0.32153,1.981358 1.35489,4.453631 2.29636,5.493939 0.98997,1.093905 1.89759,4.132429 2.15248,7.20604 0.38271,4.615016 0.11329,5.667885 -2.04685,7.998715 -2.96587,3.200222 -4.0492,7.690954 -2.70699,11.221248 1.1815,3.107569 2.12796,3.788352 -0.71452,8.54943 C 386.21648,101 384.83992,100.55 384.5,100 c -1.39235,-2.252862 -4.05933,-0.838408 -5.67574,3.01017 -1.94072,4.62075 -4.42739,5.53953 -3.35555,1.23983"
         inkscape:connector-curvature="0"
         sodipodi:nodetypes="cssscsssssssssssscsssssssssscssc" />
      <path
         style="fill:none;stroke:#ac121e;stroke-width:1;stroke-miterlimit:4;stroke-opacity:1;stroke-dasharray:none"
         d="m 318.9985,453.31289 c 1.36922,-5.00964 -2.7624,-12.12244 3.90779,-14.34414 5.55589,-5.98526 -0.17952,-14.24484 -1.1875,-20.96875 -2.65164,-12.25556 2.65018,-25.03327 12.34375,-32.6875 4.34839,-4.8911 10.83663,-6.40016 14.84644,-11.71207 8.45926,-7.24158 15.49205,-16.01826 20.16187,-26.12507 2.18605,-3.51222 2.60625,-11.39984 3.99304,-15.28401"
         id="path4138"
         inkscape:connector-curvature="0"
         sodipodi:nodetypes="ccccccc" />
      <path
         style="fill:none;stroke:#ac121e;stroke-width:1;stroke-miterlimit:4;stroke-opacity:1;stroke-dasharray:none"
         d="m 426.22052,389.09394 c 6.39599,-5.29739 15.20383,3.05632 22.21702,2.15606 5.0591,-0.095 12.38053,-1.61874 14.0625,-6.78125 -4.33262,-7.23564 -15.98375,-1.58718 -20.5,-8.96875 -2.43921,-3.80161 0.51663,-9.31702 -4.0625,-12.125 -4.15368,-4.23272 -6.91539,-11.04858 -13.375,-11.96875 -5.09805,-4.14783 -7.35344,-12.60303 -15.1875,-12.5 -12.03149,-2.17777 -24.6544,-1.89619 -36.125,-6.71875 -0.68033,-6.2112 0.61566,-15.15887 -6.5625,-17.96875 -6.56554,-4.42669 -14.43168,-10.05352 -13.09109,-18.03318 -2.87953,-3.50706 -1.07201,0.38556 -3.69004,-3.79937 m 5.34472,-42.49868 c 7.21351,-6.50231 25.19154,-7.30046 34.93637,-8.79377 7.57253,-2.11414 15.8394,-6.50553 16.71875,-15.125 l 0.2732,-0.32784 c 4.61731,-6.04128 -3.30228,-4.44402 1.77173,-8.21971"
         id="path4184"
         inkscape:connector-curvature="0"
         sodipodi:nodetypes="cccccccccccccccc" />
      <path
         style="fill:none;stroke:#ac121e;stroke-width:1;stroke-miterlimit:4;stroke-opacity:1;stroke-dasharray:none"
         d="m 575.91361,190.79885 c -3.35992,-1.96878 -5.83589,2.23778 -8.96183,2.89428 4.58018,4.38978 -2.13738,6.42914 -8.48591,6.45288 -3.23416,0.57157 -8.72472,-4.80968 -11.50503,-1.40316 -2.27377,2.13808 -5.7048,1.28761 -6.89834,-1.30535 -3.88636,-0.0476 -6.90144,-2.28496 -8.8125,-5.4375 -3.27647,-3.17509 -8.85458,-4.77244 -12.6875,-1.5625 -5.91377,-1.9876 -11.12571,-5.76211 -16.84375,-7.9375 -8.9546,-5.41978 -18.58713,-9.79516 -25.86431,-17.60612 -4.26249,-3.60665 -11.96316,-8.76364 -16.3828,-12.17359 M 423.76765,84.875771 c 0.60565,-5.51127 9.93969,-7.90313 7.91985,-13.875771 2.28517,-8.025327 12.32725,-6.097878 18.5,-7.6875 9.78682,-3.179929 14.70815,-15.224015 13.375,-24.65625"
         id="path4162"
         inkscape:connector-curvature="0"
         sodipodi:nodetypes="cccccccccccccc" />
      <path
         id="path4152"
         style="fill:none;stroke:#ac121e;stroke-width:1;stroke-miterlimit:4;stroke-opacity:1;stroke-dasharray:none"
         d="m 384.59375,2.78125 c -2.0049,0.5298927 3.18068,2.1455563 4.0625,3.375 8.80741,5.365623 9.89832,16.491818 14.51026,24.86533 6.39883,14.865423 11.23568,30.679795 21.11474,43.69717 1.61849,4.823769 -3.19856,15.100602 -4.49904,19.526046 M 283.10785,66.980918 c -6.05315,-2.610874 -30.02591,-29.34324 -35.4516,-33.043418 -7.68823,-7.023744 -14.77074,-14.925018 -22,-22.3125 -1.21547,-2.7941363 -2.91019,-9.9035767 -6.875,-8.09375"
         inkscape:connector-curvature="0"
         sodipodi:nodetypes="ccccccccc" />
      <path
         style="fill:none;stroke:#ac121e;stroke-width:1;stroke-miterlimit:4;stroke-opacity:1;stroke-dasharray:none"
         d="m 196.28466,124.14601 c 7.66755,3.46529 14.03883,1.66912 20.7074,4.3504"
         id="path4145"
         inkscape:connector-curvature="0"
         sodipodi:nodetypes="cc" />
      <path
         style="fill:none;stroke:#ac121e;stroke-width:1;stroke-miterlimit:4;stroke-opacity:1;stroke-dasharray:none"
         d="m 283.625,66.71875 c -4.19559,-0.25264 -8.27122,3.274743 -9.3125,7.625 0.36412,3.486387 -3.62547,1.324948 -5.59375,2.375 -5.39165,6.958013 -13.87368,11.307232 -22.75,12.5625 -5.38852,2.058224 -12.09373,-1.07576 -16.5,3.34375 -2.33469,3.869465 -6.28475,7.60291 -5.0625,12.65625 1.24573,3.15204 2.7154,7.07459 -0.75,9.53125 -4.50221,3.80739 -10.59251,11.2835 -5.15625,16.96875 4.1005,2.1647 0.98974,6.92765 3.1875,10.375 2.20461,3.53082 2.18666,10.41825 7.75,10.40625 4.40184,-1.66481 9.41954,-2.03396 13.34375,1.0625 6.21977,6.883 16.48872,6.96802 24.65625,3.78125 13.63573,-6.90948 28.95566,0.64362 41.21875,7.34375 12.47186,-0.31912 26.26576,9.3056 34.4375,7.46875 3.54478,-0.25272 6.12759,-2.44084 9.125,-4.1875 12.78099,-2.29551 3.71196,11.15893 12.58487,13.61244 7.12444,6.00063 8.96118,16.18817 18.44638,20.10631 5.46689,0.47958 8.86381,5.61131 13.21475,8.12886 28.45128,20.22435 22.26691,-0.84521 40.379,-18.59761 7.18424,-7.32561 18.86393,-12.94956 19.09375,-24.6875 -0.19061,-8.12992 6.38216,-17.38567 0.59375,-24.9375 -4.07381,-3.44295 -9.65465,-5.5717 -11.3125,-11.28125 -4.16906,-15.26742 -17.57681,-25.02635 -26.34375,-37.40625 -12.19905,0.99415 -24.49025,2.223177 -36.71875,0.96875 -6.88903,-3.425253 -13.17653,3.483484 -19.90625,3.3125 -7.29632,-3.412848 -13.69674,-10.21522 -22.4375,-10.1875 -7.32104,1.847419 -12.6529,-4.283813 -17.6875,-8.53125 -5.89737,-0.847956 -12.92572,3.19651 -18.8125,-0.28125 -4.43025,-4.289532 -9.37384,-8.317173 -15.5625,-9.90625 -1.31857,-1.032329 -2.72647,-1.540787 -4.125,-1.625 z"
         transform="translate(0.81460853,1.2202435)"
         id="path4143"
         inkscape:connector-curvature="0"
         sodipodi:nodetypes="sccccccccccccccccccccccccccccs" />
      <path
         style="fill:none;stroke:#ac121e;stroke-width:1;stroke-miterlimit:4;stroke-opacity:1;stroke-dasharray:none"
         d="m 365.90158,183.22429 c -1.83832,5.82835 -13.61943,23.11316 -13.80783,29.71321 -2.41647,7.70041 5.73484,13.5996 4.20997,21.31237 0.11831,8.64544 0.6763,20.86896 -8.70997,25.00013 -6.34638,1.36598 -0.73369,9.65525 -0.0341,14.15548 1.22101,8.06175 3.27544,14.97849 2.12789,23.21952 -2.44431,6.09802 -11.94677,8.39025 -16.125,2.625 -8.09439,-5.39573 -19.40172,-5.40343 -27.96648,-0.96478 -6.41055,1.20437 -8.18085,-2.46826 -11.44462,-1.5921 1.46827,5.22263 0.61102,10.90379 -3.9014,14.55688 -9.43209,9.4851 -25.7144,10.22032 -32.1875,22.90625 -5.70399,7.58524 -12.48396,14.21261 -19.53125,20.46875 -5.56883,3.47821 -12.40591,1.3512 -18.5625,1.5625 -7.85746,0.11478 -26.67802,-12.4137 -26.74503,-9.54871"
         id="path4191"
         inkscape:connector-curvature="0"
         sodipodi:nodetypes="cccccccccccccc" />
      <path
         style="fill:none;stroke:#ac121e;stroke-width:1;stroke-miterlimit:4;stroke-opacity:1;stroke-dasharray:none"
         d="m 3.125,108.53125 c -1.4697481,5.68068 6.7139855,6.60872 8.375,11.25 4.022353,9.20692 -2.8090707,18.13098 -4.9375,26.875 -0.9233879,11.65789 1.9917997,23.15223 6.375,33.6875 0.754144,4.15086 2.94214,0.25935 2.671008,3.29031 2.54721,-3.20868 1.928632,0.0847 7.735242,1.20969 8.703283,-2.12397 9.054273,3.7565 12.21875,5.9375 7.541699,5.65238 4.393366,16.70059 8.75,23.9375 l 17.37504,22.5625 c -1.251877,5.91881 7.661082,7.47394 8.540865,12.92308 3.020087,10.18961 21.275363,5.73118 32.304425,10.95385 13.80888,-3.44773 16.35893,-17.58138 24.74899,-13.68207 9.75011,4.5314 8.04653,13.04659 7.89995,21.60357"
         id="path4065"
         inkscape:connector-curvature="0"
         sodipodi:nodetypes="cccccccccccsc" />
      <path
         style="fill:none;stroke:#ac121e;stroke-width:1;stroke-miterlimit:4;stroke-opacity:1;stroke-dasharray:none"
         d="m 72.502313,366.84226 c 8.449165,-5.87962 19.548468,-13.53373 27.747687,-19.77971 8.84541,-5.39042 24.77546,-8.56941 26.92354,-26.99517 3.67827,-12.52143 3.27337,-13.5751 0.73275,-20.22363 -1.91993,-11.11938 3.26585,-21.81405 7.625,-31.625 4.08421,-9.19217 16.28401,-7.1297 24.53125,-9 7.25623,-0.94859 15.06012,-4.73832 21.84375,0.0625 14.07615,5.99786 27.5311,16.01412 43.56217,15.72437 13.14367,0.63995 24.6737,-6.29969 36.12533,-11.50562 8.25629,-0.88215 10.2272,9.22537 15.96875,12.96875 4.00394,2.64448 6.84662,6.59817 9.6875,10.125 3.27149,2.34339 5.77309,6.08599 6.9014,10.09937"
         id="path4205"
         inkscape:connector-curvature="0"
         sodipodi:nodetypes="ccccsccccccc" />
      <path
         style="fill:none;stroke:#ac121e;stroke-width:1;stroke-miterlimit:4;stroke-opacity:1;stroke-dasharray:none"
         d="m 15.856966,184.49507 c 4.938892,3.77769 -5.9707659,1.4337 -6.0614709,24.33942 L 9,211.66291 c -3.2143128,5.39738 3.817183,7.29647 6.669442,10.63147 11.910426,11.84565 27.203966,20.20302 37.861808,33.11187 4.527875,4.44436 1.028201,10.20562 -0.1875,15.1875 2.457189,16.32162 10.719959,31.09997 14.122086,47.29462 3.823063,7.62062 4.129216,16.12379 3.486646,24.51586 -0.853592,8.9413 1.462027,17.6836 1.547518,26.53327 -3.620872,12.48209 -13.141959,22.3871 -20.971363,32.50077 -4.496881,5.91287 -10.010945,11.57777 -12.809887,18.31173 2.672879,6.89007 11.28993,9.35638 14.40625,16.25 5.077975,9.01502 5.039187,21.40501 13.5625,28.25 4.233972,1.09551 8.070869,-3.36541 12.5,-3.3125 8.91751,-1.4971 18.553511,-1.56902 26.15625,-6.8125 5.74461,0.208 8.35899,6.63717 13.375,8.65625 6.50163,5.21437 13.72004,9.57271 21.65625,11.53125 2.25871,3.13894 3.42606,7.08034 7.25,8.71875 8.2344,6.24907 17.38129,11.42821 24.75,18.53125"
         id="path4199"
         inkscape:connector-curvature="0"
         sodipodi:nodetypes="ccccccccccccccccccc" />
      <path
         style="fill:none;stroke:#ac121e;stroke-width:1;stroke-miterlimit:4;stroke-opacity:1;stroke-dasharray:none"
         d="m 172.375,501.5625 c 1.78556,1.10082 2.6121,-0.28881 1.21875,-1.90625"
         id="path4195"
         inkscape:connector-curvature="0" />
      <path
         style="fill:#fd0337;stroke-width:1;stroke-miterlimit:4;stroke-dasharray:none"
         d="m 259.46875,487.375 c 0.10364,-0.0325 -0.0429,-0.0577 0,0 z"
         id="path3087"
         inkscape:connector-curvature="0" />
    </g>
    <path
       style="fill:#95f0f0;fill-opacity:1;stroke:#2a2de4;stroke-width:1;stroke-linecap:butt;stroke-linejoin:miter;stroke-miterlimit:4;stroke-opacity:1;stroke-dasharray:none"
       d="m 11.052872,204.47874 c 1.931632,-3.56341 3.626112,-7.27843 5.708624,-10.74539 2.280372,-3.44908 6.52537,-4.69144 10.387803,-3.46238 8.825114,-1.64147 7.718637,17.80628 2.642922,14.6206 -3.433631,-8.71235 -4.722064,-2.47759 -5.844794,1.0336 0.121831,3.74713 3.551402,6.45012 5.040626,9.78025 2.064732,3.45472 5.684217,5.54647 8.481978,8.36081 8.509167,7.57246 16.931988,15.25093 25.502462,22.74798 1.461306,1.86794 2.136611,4.26138 3.263132,6.35303 0.797117,1.69387 2.577743,5.13621 3.37486,6.83008 C 59.151,257.51265 6.0351398,216.25705 11.052872,204.47874 z"
       id="path4254"
       inkscape:connector-curvature="0"
       sodipodi:nodetypes="ccccccccccc" />
    <path
       style="fill:none;stroke:#000000;stroke-width:0;stroke-linecap:butt;stroke-linejoin:miter;stroke-miterlimit:4;stroke-opacity:1;stroke-dasharray:none"
       d="m 473.13679,437.35992 54.74155,-23.98095 -0.62171,-0.61461"
       id="path4902"
       inkscape:connector-curvature="0"
       sodipodi:nodetypes="ccc" />
    <path
       style="fill:none;stroke:#000000;stroke-width:0;stroke-linecap:butt;stroke-linejoin:miter;stroke-miterlimit:4;stroke-opacity:1;stroke-dasharray:none"
       d="m 197.81544,435.14642 53.78108,15.45433 0,0.61818"
       id="path4907"
       inkscape:connector-curvature="0" />
    <path
       style="fill:none;stroke:#000000;stroke-width:0;stroke-linecap:butt;stroke-linejoin:miter;stroke-miterlimit:4;stroke-opacity:1;stroke-dasharray:none"
       d="m 82.680673,411.88766 c 17.924137,-18.5602 15.264045,-29.71062 19.626997,-47.52208"
       id="path4912"
       inkscape:connector-curvature="0"
       sodipodi:nodetypes="cc" />
    <path
       style="fill:none;stroke:#000000;stroke-width:0;stroke-linecap:butt;stroke-linejoin:miter;stroke-miterlimit:4;stroke-opacity:1;stroke-dasharray:none"
       d="m 145.34799,399.13783 c 17.66797,8.80188 34.00861,14.52579 41.18579,28.43597"
       id="path4917"
       inkscape:connector-curvature="0"
       sodipodi:nodetypes="cc" />
    <path
       style="fill:none;stroke:#000000;stroke-width:0;stroke-linecap:butt;stroke-linejoin:miter;stroke-miterlimit:4;stroke-opacity:1;stroke-dasharray:none"
       d="m 256.75136,305.08952 c 10.56439,-10.55611 20.92585,-18.67706 30.90866,-22.25424 l 0,0"
       id="path4922"
       inkscape:connector-curvature="0"
       sodipodi:nodetypes="ccc" />
    <path
       style="fill:none;stroke:#000000;stroke-width:0;stroke-linecap:butt;stroke-linejoin:miter;stroke-miterlimit:4;stroke-opacity:1;stroke-dasharray:none"
       d="m 97.980464,133.86423 24.417846,34.23134 0,0.61818"
       id="path4927"
       inkscape:connector-curvature="0"
       sodipodi:nodetypes="ccc" />
    <path
       style="fill:none;stroke:#000000;stroke-width:0;stroke-linecap:butt;stroke-linejoin:miter;stroke-miterlimit:4;stroke-opacity:1;stroke-dasharray:none"
       d="m 295.14023,55.791066 c 49.23343,-5.589068 37.07959,1.106583 55.6356,1.85452 l 0,0"
       id="path4932"
       inkscape:connector-curvature="0"
       sodipodi:nodetypes="ccc" />
    <g
       style="font-size:14px;font-style:normal;font-variant:normal;font-weight:normal;font-stretch:normal;text-align:start;line-height:125%;letter-spacing:0px;word-spacing:0px;writing-mode:lr-tb;text-anchor:start;fill:#000000;fill-opacity:1;stroke:none;font-family:Linux Biolinum O;-inkscape-font-specification:Linux Biolinum O"
       id="text6480">
      <path
         d="m 257.57801,475.26607 c 0.238,0 0.462,0.084 0.616,0.224 0.434,0.364 0.812,1.456 0.812,3.332 0,1.288 -0.042,2.016 -0.238,2.73 -0.308,1.162 -0.994,1.302 -1.246,1.302 -1.302,0 -1.456,-2.394 -1.456,-3.612 0,-3.458 0.868,-3.976 1.512,-3.976 m -0.07,8.134 c 1.078,0 2.702,-1.19 2.702,-4.466 0,-2.184 -0.798,-3.262 -1.302,-3.724 -0.378,-0.35 -0.826,-0.49 -1.33,-0.49 -1.4,0 -2.716,1.736 -2.716,4.494 0,2.268 0.91,4.186 2.646,4.186"
         id="path6493"
         inkscape:connector-curvature="0" />
      <path
         d="m 312.65182,483.40007 c 1.666,0 2.856,-1.232 2.856,-2.884 0,-1.358 -0.91,-2.576 -2.478,-2.576 -0.574,0 -1.218,0.098 -1.526,0.21 l 0.294,-2.478 c 0.518,0.07 1.12,0.126 1.778,0.126 0.42,0 0.896,-0.014 1.47,-0.084 l 0.224,-0.952 -0.098,-0.042 c -0.798,0.098 -1.554,0.14 -2.296,0.14 -0.518,0 -1.12,-0.042 -1.596,-0.084 l -0.448,4.13 0.098,0.028 c 0.546,-0.224 1.078,-0.434 1.736,-0.434 0.91,0 1.61,0.728 1.61,2.254 0,1.288 -0.644,2.086 -1.596,2.086 -1.05,0 -1.232,-0.56 -1.694,-1.4 l -0.196,0.014 -0.308,1.12 0.056,0.042 c 0.35,0.308 1.05,0.784 2.114,0.784"
         id="path6495"
         inkscape:connector-curvature="0" />
      <path
         d="m 319.59363,475.26607 c 0.238,0 0.462,0.084 0.616,0.224 0.434,0.364 0.812,1.456 0.812,3.332 0,1.288 -0.042,2.016 -0.238,2.73 -0.308,1.162 -0.994,1.302 -1.246,1.302 -1.30199,0 -1.456,-2.394 -1.456,-3.612 0,-3.458 0.86801,-3.976 1.512,-3.976 m -0.07,8.134 c 1.078,0 2.702,-1.19 2.702,-4.466 0,-2.184 -0.798,-3.262 -1.302,-3.724 -0.378,-0.35 -0.826,-0.49 -1.33,-0.49 -1.39999,0 -2.716,1.736 -2.716,4.494 0,2.268 0.91001,4.186 2.646,4.186"
         id="path6497"
         inkscape:connector-curvature="0" />
      <path
         d="m 372.90345,480.61407 0,-3.556 c 0,-1.512 0.084,-2.072 0.112,-2.268 0,-0.07 -0.042,-0.07 -0.098,-0.07 -0.91,0.294 -1.974,0.84 -3.066,1.176 l 0.084,0.406 c 0.63,-0.07 1.316,-0.224 1.596,-0.224 0.252,0 0.252,0.56 0.252,1.064 l 0,3.472 c 0,1.092 -0.014,1.848 -0.112,2.646 l 0.014,0.042 c 0,0 0.392,-0.042 0.644,-0.042 0.28,0 0.672,0.042 0.672,0.042 l 0.028,-0.042 c -0.098,-0.84 -0.126,-1.54 -0.126,-2.646"
         id="path6499"
         inkscape:connector-curvature="0" />
      <path
         d="m 378.10926,475.26607 c 0.238,0 0.462,0.084 0.616,0.224 0.434,0.364 0.812,1.456 0.812,3.332 0,1.288 -0.042,2.016 -0.238,2.73 -0.308,1.162 -0.994,1.302 -1.246,1.302 -1.302,0 -1.456,-2.394 -1.456,-3.612 0,-3.458 0.868,-3.976 1.512,-3.976 m -0.07,8.134 c 1.078,0 2.702,-1.19 2.702,-4.466 0,-2.184 -0.798,-3.262 -1.302,-3.724 -0.378,-0.35 -0.826,-0.49 -1.33,-0.49 -1.4,0 -2.716,1.736 -2.716,4.494 0,2.268 0.91,4.186 2.646,4.186"
         id="path6501"
         inkscape:connector-curvature="0" />
      <path
         d="m 384.61707,475.26607 c 0.238,0 0.462,0.084 0.616,0.224 0.434,0.364 0.812,1.456 0.812,3.332 0,1.288 -0.042,2.016 -0.238,2.73 -0.308,1.162 -0.994,1.302 -1.246,1.302 -1.302,0 -1.456,-2.394 -1.456,-3.612 0,-3.458 0.868,-3.976 1.512,-3.976 m -0.07,8.134 c 1.078,0 2.702,-1.19 2.702,-4.466 0,-2.184 -0.798,-3.262 -1.302,-3.724 -0.378,-0.35 -0.826,-0.49 -1.33,-0.49 -1.4,0 -2.716,1.736 -2.716,4.494 0,2.268 0.91,4.186 2.646,4.186"
         id="path6503"
         inkscape:connector-curvature="0" />
      <path
         d="m 430.92688,480.61407 0,-3.556 c 0,-1.512 0.084,-2.072 0.112,-2.268 0,-0.07 -0.042,-0.07 -0.098,-0.07 -0.90999,0.294 -1.974,0.84 -3.066,1.176 l 0.084,0.406 c 0.63,-0.07 1.316,-0.224 1.596,-0.224 0.252,0 0.252,0.56 0.252,1.064 l 0,3.472 c 0,1.092 -0.014,1.848 -0.112,2.646 l 0.014,0.042 c 0,0 0.392,-0.042 0.644,-0.042 0.28,0 0.672,0.042 0.672,0.042 l 0.028,-0.042 c -0.098,-0.84 -0.126,-1.54 -0.126,-2.646"
         id="path6505"
         inkscape:connector-curvature="0" />
      <path
         d="m 435.6987,483.40007 c 1.666,0 2.856,-1.232 2.856,-2.884 0,-1.358 -0.91,-2.576 -2.478,-2.576 -0.574,0 -1.218,0.098 -1.526,0.21 l 0.294,-2.478 c 0.518,0.07 1.12,0.126 1.778,0.126 0.42,0 0.896,-0.014 1.47,-0.084 l 0.224,-0.952 -0.098,-0.042 c -0.798,0.098 -1.554,0.14 -2.296,0.14 -0.518,0 -1.12,-0.042 -1.596,-0.084 l -0.448,4.13 0.098,0.028 c 0.546,-0.224 1.078,-0.434 1.736,-0.434 0.91,0 1.61,0.728 1.61,2.254 0,1.288 -0.644,2.086 -1.596,2.086 -1.05,0 -1.232,-0.56 -1.694,-1.4 l -0.196,0.014 -0.308,1.12 0.056,0.042 c 0.35,0.308 1.05,0.784 2.114,0.784"
         id="path6507"
         inkscape:connector-curvature="0" />
      <path
         d="m 442.64051,475.26607 c 0.238,0 0.462,0.084 0.616,0.224 0.434,0.364 0.812,1.456 0.812,3.332 0,1.288 -0.042,2.016 -0.238,2.73 -0.308,1.162 -0.994,1.302 -1.246,1.302 -1.302,0 -1.456,-2.394 -1.456,-3.612 0,-3.458 0.868,-3.976 1.512,-3.976 m -0.07,8.134 c 1.078,0 2.702,-1.19 2.702,-4.466 0,-2.184 -0.798,-3.262 -1.302,-3.724 -0.378,-0.35 -0.826,-0.49 -1.33,-0.49 -1.4,0 -2.716,1.736 -2.716,4.494 0,2.268 0.91,4.186 2.646,4.186"
         id="path6509"
         inkscape:connector-curvature="0" />
      <path
         d="m 490.71432,475.51807 c 0.728,0 1.47,0.672 1.47,1.666 0,0.574 -0.168,1.316 -0.532,1.862 -0.994,1.498 -2.604,2.912 -3.29,3.556 -0.014,0.056 -0.028,0.112 -0.028,0.182 0,0.21 0.07,0.434 0.14,0.546 1.036,-0.028 1.638,-0.07 2.66,-0.07 1.008,0 1.428,0.028 2.422,0.07 -0.014,-0.14 -0.042,-0.308 -0.042,-0.462 0,-0.224 0.014,-0.434 0.07,-0.658 -0.784,0.07 -1.218,0.112 -2.562,0.112 -0.49,0 -0.756,0 -1.148,0.028 0,-0.014 -0.014,-0.042 -0.014,-0.07 0,-0.126 0.154,-0.266 0.252,-0.378 0.686,-0.658 1.344,-1.288 2.268,-2.534 0.518,-0.686 1.008,-1.582 1.008,-2.38 0,-1.33 -0.896,-2.268 -2.45,-2.268 -1.274,0 -2.1,0.714 -2.408,1.134 l 0.294,0.966 0.182,0.014 c 0.196,-0.42 0.266,-0.7 0.63,-0.994 0.28,-0.224 0.686,-0.322 1.078,-0.322"
         id="path6511"
         inkscape:connector-curvature="0" />
      <path
         d="m 497.35535,475.26607 c 0.238,0 0.462,0.084 0.616,0.224 0.434,0.364 0.812,1.456 0.812,3.332 0,1.288 -0.042,2.016 -0.238,2.73 -0.308,1.162 -0.994,1.302 -1.246,1.302 -1.302,0 -1.456,-2.394 -1.456,-3.612 0,-3.458 0.868,-3.976 1.512,-3.976 m -0.07,8.134 c 1.078,0 2.702,-1.19 2.702,-4.466 0,-2.184 -0.798,-3.262 -1.302,-3.724 -0.378,-0.35 -0.826,-0.49 -1.33,-0.49 -1.4,0 -2.716,1.736 -2.716,4.494 0,2.268 0.91001,4.186 2.646,4.186"
         id="path6513"
         inkscape:connector-curvature="0" />
      <path
         d="m 503.86317,475.26607 c 0.238,0 0.462,0.084 0.616,0.224 0.434,0.364 0.812,1.456 0.812,3.332 0,1.288 -0.042,2.016 -0.238,2.73 -0.308,1.162 -0.994,1.302 -1.246,1.302 -1.302,0 -1.456,-2.394 -1.456,-3.612 0,-3.458 0.868,-3.976 1.512,-3.976 m -0.07,8.134 c 1.07799,0 2.702,-1.19 2.702,-4.466 0,-2.184 -0.798,-3.262 -1.302,-3.724 -0.378,-0.35 -0.826,-0.49 -1.33,-0.49 -1.4,0 -2.716,1.736 -2.716,4.494 0,2.268 0.91,4.186 2.646,4.186"
         id="path6515"
         inkscape:connector-curvature="0" />
      <path
         d="m 548.43698,475.51807 c 0.728,0 1.47,0.672 1.47,1.666 0,0.574 -0.168,1.316 -0.532,1.862 -0.994,1.498 -2.604,2.912 -3.29,3.556 -0.014,0.056 -0.028,0.112 -0.028,0.182 0,0.21 0.07,0.434 0.14,0.546 1.036,-0.028 1.638,-0.07 2.66,-0.07 1.008,0 1.428,0.028 2.422,0.07 -0.014,-0.14 -0.042,-0.308 -0.042,-0.462 0,-0.224 0.014,-0.434 0.07,-0.658 -0.784,0.07 -1.218,0.112 -2.562,0.112 -0.49,0 -0.756,0 -1.148,0.028 0,-0.014 -0.014,-0.042 -0.014,-0.07 0,-0.126 0.154,-0.266 0.252,-0.378 0.686,-0.658 1.344,-1.288 2.268,-2.534 0.518,-0.686 1.008,-1.582 1.008,-2.38 0,-1.33 -0.896,-2.268 -2.45,-2.268 -1.274,0 -2.1,0.714 -2.408,1.134 l 0.294,0.966 0.182,0.014 c 0.196,-0.42 0.266,-0.7 0.63,-0.994 0.28,-0.224 0.686,-0.322 1.078,-0.322"
         id="path6517"
         inkscape:connector-curvature="0" />
      <path
         d="m 554.64401,483.40007 c 1.666,0 2.856,-1.232 2.856,-2.884 0,-1.358 -0.91,-2.576 -2.478,-2.576 -0.574,0 -1.218,0.098 -1.526,0.21 l 0.294,-2.478 c 0.518,0.07 1.12,0.126 1.778,0.126 0.42,0 0.896,-0.014 1.47,-0.084 l 0.224,-0.952 -0.098,-0.042 c -0.798,0.098 -1.554,0.14 -2.296,0.14 -0.518,0 -1.12,-0.042 -1.596,-0.084 l -0.448,4.13 0.098,0.028 c 0.546,-0.224 1.078,-0.434 1.736,-0.434 0.91,0 1.61,0.728 1.61,2.254 0,1.288 -0.644,2.086 -1.596,2.086 -1.05,0 -1.232,-0.56 -1.694,-1.4 l -0.196,0.014 -0.308,1.12 0.056,0.042 c 0.35,0.308 1.05,0.784 2.114,0.784"
         id="path6519"
         inkscape:connector-curvature="0" />
      <path
         d="m 561.58582,475.26607 c 0.238,0 0.462,0.084 0.616,0.224 0.434,0.364 0.812,1.456 0.812,3.332 0,1.288 -0.042,2.016 -0.238,2.73 -0.308,1.162 -0.994,1.302 -1.246,1.302 -1.302,0 -1.456,-2.394 -1.456,-3.612 0,-3.458 0.868,-3.976 1.512,-3.976 m -0.07,8.134 c 1.078,0 2.702,-1.19 2.702,-4.466 0,-2.184 -0.798,-3.262 -1.302,-3.724 -0.378,-0.35 -0.826,-0.49 -1.33,-0.49 -1.4,0 -2.716,1.736 -2.716,4.494 0,2.268 0.91,4.186 2.646,4.186"
         id="path6521"
         inkscape:connector-curvature="0" />
    </g>
    <flowRoot
       xml:space="preserve"
       id="flowRoot6484"
       style="font-size:14px;font-style:normal;font-variant:normal;font-weight:normal;font-stretch:normal;text-align:start;line-height:125%;letter-spacing:0px;word-spacing:0px;writing-mode:lr-tb;text-anchor:start;fill:#000000;fill-opacity:1;stroke:none;font-family:Linux Biolinum O;-inkscape-font-specification:Linux Biolinum O"><flowRegion
         id="flowRegion6486"><rect
           id="rect6488"
           width="310.10147"
           height="16.407486"
           x="255.54659"
           y="464.80167" /></flowRegion><flowPara
         id="flowPara6490" /></flowRoot>  </g>
  <g
     inkscape:groupmode="layer"
     id="layer11"
     inkscape:label="towns"
     style="display:none">
    <path
       style="opacity:0.80373828;fill:#150f10;stroke-width:1;stroke-miterlimit:4;stroke-dasharray:none;display:inline"
       d="m 197.52066,476.55335 c -0.87268,-1.41202 1.0547,-3.3394 2.46672,-2.46672 0.59792,0.36954 1.08713,1.32033 1.08713,2.11287 0,1.68362 -2.57364,1.93987 -3.55385,0.35385 z m -87.91353,-21.86008 c -0.87924,-1.42264 0.24199,-3.05279 2.09972,-3.05279 0.87615,0 1.37805,0.70256 1.19098,1.66713 -0.38952,2.00847 -2.38616,2.84922 -3.2907,1.38566 z m 313.58936,-66.40581 c -1.21556,-1.46466 -0.52559,-2.64698 1.54469,-2.64698 1.4897,0 1.82538,2.57786 0.44664,3.42997 -0.48768,0.30141 -1.38378,-0.0509 -1.99133,-0.78299 z m 33.50187,-4.18483 c -0.63587,-1.65704 1.62324,-3.04551 3.28459,-2.01874 1.32261,0.81742 0.23788,3.55659 -1.40844,3.55659 -0.70731,0 -1.55158,-0.69203 -1.87615,-1.53785 z M 189.57451,345.64048 c -0.81604,-1.32037 0.27686,-3 1.95203,-3 1.46268,0 2.76672,2.44792 1.8124,3.40223 -0.9325,0.93251 -3.08143,0.70289 -3.76443,-0.40223 z m 160.67288,-51.65919 c 0.42145,-2.18841 3.32712,-2.49801 3.32712,-0.35451 0,0.81747 -0.82837,1.64584 -1.84081,1.84082 -1.3364,0.25736 -1.74367,-0.14991 -1.48631,-1.48631 z m -64.72673,-10.42794 c -1.03052,-1.66742 1.28721,-3.57951 2.66672,-2.2 1.15392,1.15392 0.43172,3.28713 -1.11287,3.28713 -0.48508,0 -1.18431,-0.48921 -1.55385,-1.08713 z M 133.07451,260.64048 c 0,-1.50615 0.52215,-2.04609 1.75,-1.80963 2.27111,0.43738 2.27111,3.18188 0,3.61926 -1.22785,0.23646 -1.75,-0.30348 -1.75,-1.80963 z m -76.809627,-1.75 c 0.18536,-0.9625 0.9997,-1.75 1.80963,-1.75 0.80994,0 1.62427,0.7875 1.80963,1.75 0.23646,1.22785 -0.30348,1.75 -1.80963,1.75 -1.50615,0 -2.04609,-0.52215 -1.80963,-1.75 z M 407.52066,218.55335 c -1.03052,-1.66742 1.28721,-3.57951 2.66672,-2.2 1.15392,1.15392 0.43172,3.28713 -1.11287,3.28713 -0.48508,0 -1.18431,-0.48921 -1.55385,-1.08713 z M 12.698363,182.10263 c -0.341972,-0.89117 0.06182,-1.78803 0.960228,-2.13279 1.867361,-0.71657 3.910724,1.06102 2.969775,2.58351 -0.98128,1.58774 -3.247507,1.32783 -3.930003,-0.45072 z m 481.822297,0.45072 c -1.03052,-1.66742 1.28721,-3.57951 2.66672,-2.2 1.15392,1.15392 0.43172,3.28713 -1.11287,3.28713 -0.48508,0 -1.18431,-0.48921 -1.55385,-1.08713 z m -279.11032,-47.4801 c -0.88816,-2.31451 1.07718,-3.84498 2.59264,-2.01897 1.28112,1.54365 0.70081,3.58619 -1.01887,3.58619 -0.5348,0 -1.243,-0.70525 -1.57377,-1.56722 z M 421.69836,83.10262 c -0.34197,-0.891165 0.0618,-1.78803 0.96023,-2.132783 1.86736,-0.716573 3.91072,1.061016 2.96977,2.583505 -0.98128,1.587744 -3.24751,1.327836 -3.93,-0.450722 z M 280.41034,66.073257 c -0.88816,-2.314512 1.07718,-3.844985 2.59264,-2.01897 1.28112,1.543648 0.70081,3.586187 -1.01887,3.586187 -0.5348,0 -1.243,-0.705248 -1.57377,-1.567217 z M 250.40387,40.056398 c -0.71657,-1.867361 1.06102,-3.910725 2.58351,-2.969775 1.58774,0.98128 1.32783,3.247507 -0.45072,3.930003 -0.89117,0.341972 -1.78803,-0.06182 -2.13279,-0.960228 z"
       id="path3085"
       inkscape:connector-curvature="0" />
  </g>
  <g
     inkscape:groupmode="layer"
     id="layer12"
     inkscape:label="towns2">
    <path
       transform="matrix(3.1884927,0,0,3.1884927,-462.9703,-339.66767)"
       sodipodi:type="arc"
       style="fill:#000000;fill-opacity:1;fill-rule:nonzero;stroke:none"
       id="path3403"
       sodipodi:cx="213.65884"
       sodipodi:cy="148.45689"
       sodipodi:rx="0.92938709"
       sodipodi:ry="0.92938709"
       d="m 214.49469,148.05054 a 0.92938709,0.92938709 0 1 1 -0.0444,-0.0808"
       sodipodi:start="5.830674"
       sodipodi:end="12.014621"
       sodipodi:open="true" />
  </g>
  <g
     inkscape:groupmode="layer"
     id="layer8"
     inkscape:label="Border"
     style="display:inline"
     transform="translate(-1.6514275,-0.7797565)">
    <path
       style="fill:none;stroke:#92004c;stroke-width:5;stroke-linecap:butt;stroke-linejoin:miter;stroke-miterlimit:4;stroke-opacity:1;stroke-dasharray:10, 5;stroke-dashoffset:0"
       d="m 4,417.5 c 0,0 11,-11.5 11.5,-14 C 16,401 6,357.5 6,357.5 l 30,-44 17.5,0.5 22.5,17 c 20.921052,-19.17398 20.274382,-36.55064 26.5,-54.5 L 93,262 113,222 107.5,197 138,167 182,85.000002 c 25.01651,-20.555755 53.30613,-17.977508 66.5,-12.5 7.32603,2.932274 10.1713,-1.603392 9.5,-12 0.17741,-19.553766 -3.03272,-39.67212 4.5,-58.0000001"
       id="path6443"
       inkscape:connector-curvature="0"
       sodipodi:nodetypes="csccccccccccccc" />
  </g>
  <g
     inkscape:groupmode="layer"
     id="layer4"
     inkscape:label="text"
     style="display:inline"
     transform="translate(-1.6514275,-0.7797565)">
    <text
       xml:space="preserve"
       style="font-size:14px;font-style:normal;font-variant:normal;font-weight:normal;font-stretch:normal;text-align:start;line-height:125%;letter-spacing:0px;word-spacing:0px;writing-mode:lr-tb;text-anchor:start;fill:#000000;fill-opacity:1;stroke:none;font-family:Linux Biolinum O;-inkscape-font-specification:Linux Biolinum O"
       x="284.69073"
       y="66.640167"
       id="text4259"
       sodipodi:linespacing="125%"><tspan
         sodipodi:role="line"
         id="tspan4261"
         x="284.69073"
         y="66.640167"
         style="font-size:14px;font-style:normal;font-variant:normal;font-weight:normal;font-stretch:normal;text-align:start;line-height:125%;writing-mode:lr-tb;text-anchor:start;font-family:Linux Biolinum O;-inkscape-font-specification:Linux Biolinum O">Gendewuha</tspan></text>
    <text
       xml:space="preserve"
       style="font-size:14px;font-style:normal;font-variant:normal;font-weight:normal;font-stretch:normal;text-align:start;line-height:125%;letter-spacing:0px;word-spacing:0px;writing-mode:lr-tb;text-anchor:start;fill:#000000;fill-opacity:1;stroke:none;font-family:Linux Biolinum O;-inkscape-font-specification:Linux Biolinum O"
       x="189.01416"
       y="40.058712"
       id="text4263"
       sodipodi:linespacing="125%"><tspan
         sodipodi:role="line"
         id="tspan4265"
         x="189.01416"
         y="40.058712">Metemma</tspan></text>
    <text
       xml:space="preserve"
       style="font-size:14px;font-style:normal;font-variant:normal;font-weight:normal;font-stretch:normal;text-align:start;line-height:125%;letter-spacing:0px;word-spacing:0px;writing-mode:lr-tb;text-anchor:start;fill:#000000;fill-opacity:1;stroke:none;font-family:Linux Biolinum O;-inkscape-font-specification:Linux Biolinum O"
       x="425.92136"
       y="94.532951"
       id="text4267"
       sodipodi:linespacing="125%"><tspan
         sodipodi:role="line"
         id="tspan4269"
         x="425.92136"
         y="94.532951">Gonder</tspan></text>
    <text
       xml:space="preserve"
       style="font-size:14px;font-style:normal;font-variant:normal;font-weight:normal;font-stretch:normal;text-align:start;line-height:125%;letter-spacing:0px;word-spacing:0px;writing-mode:lr-tb;text-anchor:start;fill:#000000;fill-opacity:1;stroke:none;font-family:Linux Biolinum O;-inkscape-font-specification:Linux Biolinum O"
       x="498.86584"
       y="179.22269"
       id="text4271"
       sodipodi:linespacing="125%"><tspan
         sodipodi:role="line"
         id="tspan4273"
         x="498.86584"
         y="179.22269">Debre Tabor</tspan></text>
    <flowRoot
       xml:space="preserve"
       id="flowRoot4275"
       style="font-size:22px;font-style:normal;font-variant:normal;font-weight:normal;font-stretch:normal;text-align:start;line-height:125%;letter-spacing:0px;word-spacing:0px;writing-mode:lr-tb;text-anchor:start;fill:#000000;fill-opacity:1;stroke:none;font-family:Linux Biolinum O;-inkscape-font-specification:Linux Biolinum O"><flowRegion
         id="flowRegion4277"><rect
           id="rect4279"
           width="497.01129"
           height="242.94209"
           x="208.94257"
           y="-17.974577" /></flowRegion><flowPara
         id="flowPara4281" /></flowRoot>    <flowRoot
       xml:space="preserve"
       id="flowRoot4335"
       style="font-size:14px;font-style:normal;font-variant:normal;font-weight:normal;font-stretch:normal;text-align:start;line-height:125%;letter-spacing:0px;word-spacing:0px;writing-mode:lr-tb;text-anchor:start;fill:#000000;fill-opacity:1;stroke:none;font-family:Linux Biolinum O;-inkscape-font-specification:Linux Biolinum O"><flowRegion
         id="flowRegion4337"><rect
           id="rect4339"
           width="710.28107"
           height="496.39313"
           x="-32.145008"
           y="-2.5202448" /></flowRegion><flowPara
         id="flowPara4341" /></flowRoot>    <text
       xml:space="preserve"
       style="font-size:14px;font-style:normal;font-variant:normal;font-weight:normal;font-stretch:normal;text-align:start;line-height:125%;letter-spacing:0px;word-spacing:0px;writing-mode:lr-tb;text-anchor:start;fill:#000000;fill-opacity:1;stroke:none;display:inline;font-family:Linux Biolinum O;-inkscape-font-specification:Linux Biolinum O"
       x="359.37778"
       y="301.11905"
       id="text4287"
       sodipodi:linespacing="125%"><tspan
         sodipodi:role="line"
         id="tspan4289"
         x="359.37778"
         y="301.11905">Injibara</tspan></text>
    <text
       xml:space="preserve"
       style="font-size:14px;font-style:normal;font-variant:normal;font-weight:normal;font-stretch:normal;text-align:start;line-height:125%;letter-spacing:0px;word-spacing:0px;writing-mode:lr-tb;text-anchor:start;fill:#000000;fill-opacity:1;stroke:none;display:inline;font-family:Linux Biolinum O;-inkscape-font-specification:Linux Biolinum O"
       x="463.23087"
       y="380.24524"
       id="text4291"
       sodipodi:linespacing="125%"><tspan
         sodipodi:role="line"
         id="tspan4293"
         x="463.23087"
         y="380.24524">Debre Markos</tspan></text>
    <text
       xml:space="preserve"
       style="font-size:14px;font-style:normal;font-variant:normal;font-weight:normal;font-stretch:normal;text-align:start;line-height:125%;letter-spacing:0px;word-spacing:0px;writing-mode:lr-tb;text-anchor:start;fill:#000000;fill-opacity:1;stroke:none;display:inline;font-family:Linux Biolinum O;-inkscape-font-specification:Linux Biolinum O"
       x="360.65582"
       y="379.80057"
       id="text4295"
       sodipodi:linespacing="125%"><tspan
         sodipodi:role="line"
         id="tspan4297"
         x="360.65582"
         y="379.80057">Debre Eliyas</tspan></text>
    <text
       xml:space="preserve"
       style="font-size:14px;font-style:normal;font-variant:normal;font-weight:normal;font-stretch:normal;text-align:start;line-height:125%;letter-spacing:0px;word-spacing:0px;writing-mode:lr-tb;text-anchor:start;fill:#000000;fill-opacity:1;stroke:none;display:inline;font-family:Linux Biolinum O;-inkscape-font-specification:Linux Biolinum O"
       x="167.35623"
       y="487.68848"
       id="text4299"
       sodipodi:linespacing="125%"><tspan
         sodipodi:role="line"
         id="tspan4301"
         x="167.35623"
         y="487.68848">Agalo Meti</tspan></text>
    <text
       xml:space="preserve"
       style="font-size:14px;font-style:normal;font-variant:normal;font-weight:normal;font-stretch:normal;text-align:start;line-height:125%;letter-spacing:0px;word-spacing:0px;writing-mode:lr-tb;text-anchor:start;fill:#000000;fill-opacity:1;stroke:none;display:inline;font-family:Linux Biolinum O;-inkscape-font-specification:Linux Biolinum O"
       x="111.91454"
       y="450.27988"
       id="text4303"
       sodipodi:linespacing="125%"><tspan
         sodipodi:role="line"
         id="tspan4305"
         x="111.91454"
         y="450.27988">Mendi</tspan></text>
    <text
       xml:space="preserve"
       style="font-size:14px;font-style:normal;font-variant:normal;font-weight:normal;font-stretch:normal;text-align:start;line-height:125%;letter-spacing:0px;word-spacing:0px;writing-mode:lr-tb;text-anchor:start;fill:#000000;fill-opacity:1;stroke:none;display:inline;font-family:Linux Biolinum O;-inkscape-font-specification:Linux Biolinum O"
       x="164.6532"
       y="340.68216"
       id="text4307"
       sodipodi:linespacing="125%"><tspan
         sodipodi:role="line"
         id="tspan4309"
         x="164.6532"
         y="340.68216">Debre Zeit</tspan></text>
    <text
       xml:space="preserve"
       style="font-size:14px;font-style:normal;font-variant:normal;font-weight:normal;font-stretch:normal;text-align:start;line-height:125%;letter-spacing:0px;word-spacing:0px;writing-mode:lr-tb;text-anchor:start;fill:#000000;fill-opacity:1;stroke:none;display:inline;font-family:Linux Biolinum O;-inkscape-font-specification:Linux Biolinum O"
       x="291.37872"
       y="278.86481"
       id="text4311"
       sodipodi:linespacing="125%"><tspan
         sodipodi:role="line"
         id="tspan4313"
         x="291.37872"
         y="278.86481">Mandura</tspan></text>
    <text
       xml:space="preserve"
       style="font-size:14px;font-style:normal;font-variant:normal;font-weight:normal;font-stretch:normal;text-align:start;line-height:125%;letter-spacing:0px;word-spacing:0px;writing-mode:lr-tb;text-anchor:start;fill:#000000;fill-opacity:1;stroke:none;display:inline;font-family:Linux Biolinum O;-inkscape-font-specification:Linux Biolinum O"
       x="136.14223"
       y="253.37505"
       id="text4315"
       sodipodi:linespacing="125%"><tspan
         sodipodi:role="line"
         id="tspan4317"
         x="136.14223"
         y="253.37505">Mankush</tspan></text>
    <text
       xml:space="preserve"
       style="font-size:14px;font-style:normal;font-variant:normal;font-weight:normal;font-stretch:normal;text-align:start;line-height:125%;letter-spacing:0px;word-spacing:0px;writing-mode:lr-tb;text-anchor:start;fill:#000000;fill-opacity:1;stroke:none;display:inline;font-family:Linux Biolinum O;-inkscape-font-specification:Linux Biolinum O"
       x="16.29162"
       y="178.10257"
       id="text4327"
       sodipodi:linespacing="125%"><tspan
         sodipodi:role="line"
         id="tspan4329"
         x="16.29162"
         y="178.10257">Roseires</tspan></text>
    <text
       xml:space="preserve"
       style="font-size:14px;font-style:normal;font-variant:normal;font-weight:normal;font-stretch:normal;text-align:start;line-height:125%;letter-spacing:0px;word-spacing:0px;writing-mode:lr-tb;text-anchor:start;fill:#000000;fill-opacity:1;stroke:none;display:inline;font-family:Linux Biolinum O;-inkscape-font-specification:Linux Biolinum O"
       x="6.1061878"
       y="263.68475"
       id="text4331"
       sodipodi:linespacing="125%"><tspan
         sodipodi:role="line"
         id="tspan4333"
         x="6.1061878"
         y="263.68475">Famaka</tspan></text>
    <text
       xml:space="preserve"
       style="font-size:14px;font-style:normal;font-variant:normal;font-weight:normal;font-stretch:normal;text-align:start;line-height:125%;letter-spacing:0px;word-spacing:0px;writing-mode:lr-tb;text-anchor:start;fill:#000000;fill-opacity:1;stroke:none;display:inline;font-family:Linux Biolinum O;-inkscape-font-specification:Linux Biolinum O"
       x="421.27393"
       y="221.74026"
       id="text4283"
       sodipodi:linespacing="125%"><tspan
         sodipodi:role="line"
         id="tspan4285"
         x="421.27393"
         y="221.74026">Bahir Dar</tspan></text>
    <text
       xml:space="preserve"
       style="font-size:14px;font-style:normal;font-variant:normal;font-weight:normal;font-stretch:normal;text-align:start;line-height:125%;letter-spacing:0px;word-spacing:0px;writing-mode:lr-tb;text-anchor:start;fill:#000000;fill-opacity:1;stroke:none;display:inline;font-family:Linux Biolinum O;-inkscape-font-specification:Linux Biolinum O"
       x="222.23499"
       y="139.20502"
       id="text4319"
       sodipodi:linespacing="125%"><tspan
         sodipodi:role="line"
         id="tspan4321"
         x="222.23499"
         y="139.20502">Gelegu</tspan></text>
    <text
       xml:space="preserve"
       style="font-size:14px;font-style:normal;font-variant:normal;font-weight:normal;font-stretch:normal;text-align:start;line-height:125%;letter-spacing:0px;word-spacing:0px;writing-mode:lr-tb;text-anchor:start;fill:#000000;fill-opacity:1;stroke:none;display:inline;font-family:Linux Biolinum O;-inkscape-font-specification:Linux Biolinum O"
       x="198.95013"
       y="112.64708"
       id="text4323"
       sodipodi:linespacing="125%"><tspan
         sodipodi:role="line"
         id="tspan4325"
         x="198.95013"
         y="112.64708">Mahadid</tspan></text>
    <text
       xml:space="preserve"
       style="font-size:14px;font-style:normal;font-variant:normal;font-weight:normal;font-stretch:normal;text-align:start;line-height:125%;letter-spacing:0px;word-spacing:0px;writing-mode:lr-tb;text-anchor:start;fill:#000000;fill-opacity:1;stroke:none;font-family:Linux Biolinum O;-inkscape-font-specification:Linux Biolinum O"
       x="133.52542"
       y="212.60405"
       id="text4804"
       sodipodi:linespacing="125%"
       inkscape:export-xdpi="260.10001"
       inkscape:export-ydpi="260.10001"><tspan
         sodipodi:role="line"
         id="tspan4806"
         x="133.52542"
         y="212.60405">Inashemsh</tspan></text>
    <path
       style="fill:none;stroke:#00000f;stroke-width:1;stroke-miterlimit:4;stroke-opacity:0.94117647;stroke-dashoffset:0"
       d="m 556.25,487 0,7 -298.5,0 0,-7"
       id="rect6462"
       inkscape:connector-curvature="0"
       sodipodi:nodetypes="cccc" />
    <rect
       style="fill:none;stroke:#000000;stroke-width:0.90956831;stroke-miterlimit:4;stroke-opacity:1;stroke-dasharray:none;stroke-dashoffset:0"
       id="rect6467"
       width="0.14502305"
       height="6.2389436"
       x="317.62173"
       y="487.62579" />
    <rect
       style="fill:none;stroke:#000000;stroke-width:0.91778368;stroke-miterlimit:4;stroke-opacity:1;stroke-dasharray:none;stroke-dashoffset:0"
       id="rect6469"
       width="0.14502305"
       height="6.2299972"
       x="376.84241"
       y="487.612" />
    <rect
       style="fill:none;stroke:#000000;stroke-width:0.89128995;stroke-miterlimit:4;stroke-opacity:1;stroke-dasharray:none;stroke-dashoffset:0"
       id="rect6471"
       width="0.21753457"
       height="6.2787261"
       x="436.59189"
       y="487.62701" />
    <rect
       style="fill:none;stroke:#000000;stroke-width:0.89406127;stroke-miterlimit:4;stroke-opacity:1;stroke-dasharray:none;stroke-dashoffset:0"
       id="rect6473"
       width="0.072511524"
       height="6.3757939"
       x="495.8338"
       y="487.52994" />
    <path
       transform="matrix(3.1884927,0,0,3.1884927,-260.01786,-387.40518)"
       sodipodi:type="arc"
       style="fill:#000000;fill-opacity:1;fill-rule:nonzero;stroke:none"
       id="path3403-6"
       sodipodi:cx="213.65884"
       sodipodi:cy="148.45689"
       sodipodi:rx="0.92938709"
       sodipodi:ry="0.92938709"
       d="m 214.49469,148.05054 a 0.92938709,0.92938709 0 1 1 -0.0444,-0.0808"
       sodipodi:start="5.830674"
       sodipodi:end="12.014621"
       sodipodi:open="true" />
    <path
       transform="matrix(3.1884927,0,0,3.1884927,-399.08268,-406.15166)"
       sodipodi:type="arc"
       style="fill:#000000;fill-opacity:1;fill-rule:nonzero;stroke:none"
       id="path3403-7"
       sodipodi:cx="213.65884"
       sodipodi:cy="148.45689"
       sodipodi:rx="0.92938709"
       sodipodi:ry="0.92938709"
       d="m 214.49469,148.05054 a 0.92938709,0.92938709 0 1 1 -0.0444,-0.0808"
       sodipodi:start="5.830674"
       sodipodi:end="12.014621"
       sodipodi:open="true" />
    <path
       transform="matrix(3.1884927,0,0,3.1884927,-428.39536,-433.41928)"
       sodipodi:type="arc"
       style="fill:#000000;fill-opacity:1;fill-rule:nonzero;stroke:none"
       id="path3403-5"
       sodipodi:cx="213.65884"
       sodipodi:cy="148.45689"
       sodipodi:rx="0.92938709"
       sodipodi:ry="0.92938709"
       d="m 214.49469,148.05054 a 0.92938709,0.92938709 0 1 1 -0.0444,-0.0808"
       sodipodi:start="5.830674"
       sodipodi:end="12.014621"
       sodipodi:open="true" />
    <path
       transform="matrix(3.1884927,0,0,3.1884927,-182.646,-291.28684)"
       sodipodi:type="arc"
       style="fill:#000000;fill-opacity:1;fill-rule:nonzero;stroke:none"
       id="path3403-3"
       sodipodi:cx="213.65884"
       sodipodi:cy="148.45689"
       sodipodi:rx="0.92938709"
       sodipodi:ry="0.92938709"
       d="m 214.49469,148.05054 a 0.92938709,0.92938709 0 1 1 -0.0444,-0.0808"
       sodipodi:start="5.830674"
       sodipodi:end="12.014621"
       sodipodi:open="true" />
    <path
       transform="matrix(3.1884927,0,0,3.1884927,-272.96997,-255.49811)"
       sodipodi:type="arc"
       style="fill:#000000;fill-opacity:1;fill-rule:nonzero;stroke:none;display:inline"
       id="path3403-3-5"
       sodipodi:cx="213.65884"
       sodipodi:cy="148.45689"
       sodipodi:rx="0.92938709"
       sodipodi:ry="0.92938709"
       d="m 214.49469,148.05054 a 0.92938709,0.92938709 0 1 1 -0.0444,-0.0808"
       sodipodi:start="5.830674"
       sodipodi:end="12.014621"
       sodipodi:open="true" />
    <path
       transform="matrix(3.1884927,0,0,3.1884927,-330.91365,-180.17133)"
       sodipodi:type="arc"
       style="fill:#000000;fill-opacity:1;fill-rule:nonzero;stroke:none;display:inline"
       id="path3403-3-6"
       sodipodi:cx="213.65884"
       sodipodi:cy="148.45689"
       sodipodi:rx="0.92938709"
       sodipodi:ry="0.92938709"
       d="m 214.49469,148.05054 a 0.92938709,0.92938709 0 1 1 -0.0444,-0.0808"
       sodipodi:start="5.830674"
       sodipodi:end="12.014621"
       sodipodi:open="true" />
    <path
       transform="matrix(3.1884927,0,0,3.1884927,-394.31085,-188.35162)"
       sodipodi:type="arc"
       style="fill:#000000;fill-opacity:1;fill-rule:nonzero;stroke:none;display:inline"
       id="path3403-3-2"
       sodipodi:cx="213.65884"
       sodipodi:cy="148.45689"
       sodipodi:rx="0.92938709"
       sodipodi:ry="0.92938709"
       d="m 214.49469,148.05054 a 0.92938709,0.92938709 0 1 1 -0.0444,-0.0808"
       sodipodi:start="5.830674"
       sodipodi:end="12.014621"
       sodipodi:open="true" />
    <path
       transform="matrix(3.1884927,0,0,3.1884927,-487.70242,-128.36287)"
       sodipodi:type="arc"
       style="fill:#000000;fill-opacity:1;fill-rule:nonzero;stroke:none;display:inline"
       id="path3403-3-9"
       sodipodi:cx="213.65884"
       sodipodi:cy="148.45689"
       sodipodi:rx="0.92938709"
       sodipodi:ry="0.92938709"
       d="m 214.49469,148.05054 a 0.92938709,0.92938709 0 1 1 -0.0444,-0.0808"
       sodipodi:start="5.830674"
       sodipodi:end="12.014621"
       sodipodi:open="true" />
    <path
       transform="matrix(3.1884927,0,0,3.1884927,-220.47983,-89.165677)"
       sodipodi:type="arc"
       style="fill:#000000;fill-opacity:1;fill-rule:nonzero;stroke:none;display:inline"
       id="path3403-3-1"
       sodipodi:cx="213.65884"
       sodipodi:cy="148.45689"
       sodipodi:rx="0.92938709"
       sodipodi:ry="0.92938709"
       d="m 214.49469,148.05054 a 0.92938709,0.92938709 0 1 1 -0.0444,-0.0808"
       sodipodi:start="5.830674"
       sodipodi:end="12.014621"
       sodipodi:open="true" />
    <path
       transform="matrix(3.1884927,0,0,3.1884927,-255.58687,-85.41638)"
       sodipodi:type="arc"
       style="fill:#000000;fill-opacity:1;fill-rule:nonzero;stroke:none;display:inline"
       id="path3403-3-27"
       sodipodi:cx="213.65884"
       sodipodi:cy="148.45689"
       sodipodi:rx="0.92938709"
       sodipodi:ry="0.92938709"
       d="m 214.49469,148.05054 a 0.92938709,0.92938709 0 1 1 -0.0444,-0.0808"
       sodipodi:start="5.830674"
       sodipodi:end="12.014621"
       sodipodi:open="true"
       inkscape:transform-center-x="-31.357754"
       inkscape:transform-center-y="8.1802836" />
    <path
       transform="matrix(3.1884927,0,0,3.1884927,-569.50525,-17.24735)"
       sodipodi:type="arc"
       style="fill:#000000;fill-opacity:1;fill-rule:nonzero;stroke:none;display:inline"
       id="path3403-3-0"
       sodipodi:cx="213.65884"
       sodipodi:cy="148.45689"
       sodipodi:rx="0.92938709"
       sodipodi:ry="0.92938709"
       d="m 214.49469,148.05054 a 0.92938709,0.92938709 0 1 1 -0.0444,-0.0808"
       sodipodi:start="5.830674"
       sodipodi:end="12.014621"
       sodipodi:open="true" />
    <path
       transform="matrix(3.1884927,0,0,3.1884927,-479.86298,2.8625136)"
       sodipodi:type="arc"
       style="fill:#000000;fill-opacity:1;fill-rule:nonzero;stroke:none;display:inline"
       id="path3403-3-93"
       sodipodi:cx="213.65884"
       sodipodi:cy="148.45689"
       sodipodi:rx="0.92938709"
       sodipodi:ry="0.92938709"
       d="m 214.49469,148.05054 a 0.92938709,0.92938709 0 1 1 -0.0444,-0.0808"
       sodipodi:start="5.830674"
       sodipodi:end="12.014621"
       sodipodi:open="true" />
    <path
       transform="matrix(3.1884927,0,0,3.1884927,-621.31371,-213.57415)"
       sodipodi:type="arc"
       style="fill:#000000;fill-opacity:1;fill-rule:nonzero;stroke:none;display:inline"
       id="path3403-3-60"
       sodipodi:cx="213.65884"
       sodipodi:cy="148.45689"
       sodipodi:rx="0.92938709"
       sodipodi:ry="0.92938709"
       d="m 214.49469,148.05054 a 0.92938709,0.92938709 0 1 1 -0.0444,-0.0808"
       sodipodi:start="5.830674"
       sodipodi:end="12.014621"
       sodipodi:open="true" />
    <path
       transform="matrix(3.1884927,0,0,3.1884927,-665.28274,-290.60516)"
       sodipodi:type="arc"
       style="fill:#000000;fill-opacity:1;fill-rule:nonzero;stroke:none;display:inline"
       id="path3403-3-62"
       sodipodi:cx="213.65884"
       sodipodi:cy="148.45689"
       sodipodi:rx="0.92938709"
       sodipodi:ry="0.92938709"
       d="m 214.49469,148.05054 a 0.92938709,0.92938709 0 1 1 -0.0444,-0.0808"
       sodipodi:start="5.830674"
       sodipodi:end="12.014621"
       sodipodi:open="true" />
    <path
       transform="matrix(3.1884927,0,0,3.1884927,-545.30525,-209.48401)"
       sodipodi:type="arc"
       style="fill:#000000;fill-opacity:1;fill-rule:nonzero;stroke:none;display:inline"
       id="path3403-3-61"
       sodipodi:cx="213.65884"
       sodipodi:cy="148.45689"
       sodipodi:rx="0.92938709"
       sodipodi:ry="0.92938709"
       d="m 214.49469,148.05054 a 0.92938709,0.92938709 0 1 1 -0.0444,-0.0808"
       sodipodi:start="5.830674"
       sodipodi:end="12.014621"
       sodipodi:open="true" />
    <text
       xml:space="preserve"
       style="font-size:14px;font-style:normal;font-variant:normal;font-weight:normal;font-stretch:normal;text-align:start;line-height:125%;letter-spacing:0px;word-spacing:0px;writing-mode:lr-tb;text-anchor:start;fill:#000000;fill-opacity:1;stroke:none;font-family:Linux Biolinum O;-inkscape-font-specification:Linux Biolinum O"
       x="397.0318"
       y="491.55441"
       id="text4325"
       sodipodi:linespacing="125%"><tspan
         sodipodi:role="line"
         id="tspan4327"
         x="397.0318"
         y="491.55441">km</tspan></text>
  </g>
  <g
     inkscape:groupmode="layer"
     id="layer5"
     inkscape:label="countries"
     style="display:inline"
     transform="translate(-1.6514275,-0.7797565)">
    <text
       xml:space="preserve"
       style="font-size:28px;font-style:normal;font-variant:normal;font-weight:normal;font-stretch:normal;text-align:start;line-height:125%;letter-spacing:0px;word-spacing:0px;writing-mode:lr-tb;text-anchor:start;fill:#000000;fill-opacity:1;stroke:none;font-family:Linux Biolinum O;-inkscape-font-specification:Linux Biolinum O"
       x="219.80725"
       y="251.64226"
       id="text4809"
       sodipodi:linespacing="125%"><tspan
         sodipodi:role="line"
         id="tspan4811"
         x="219.80725"
         y="251.64226" /></text>
    <text
       xml:space="preserve"
       style="font-size:28px;font-style:normal;font-variant:normal;font-weight:normal;font-stretch:normal;text-align:start;line-height:125%;letter-spacing:0px;word-spacing:0px;writing-mode:lr-tb;text-anchor:start;fill:#000000;fill-opacity:1;stroke:none;font-family:Linux Biolinum O;-inkscape-font-specification:Linux Biolinum O"
       x="0.75529951"
       y="99.372276"
       id="text4813"
       sodipodi:linespacing="125%"><tspan
         sodipodi:role="line"
         id="tspan4815"
         x="0.75529951"
         y="99.372276">SUDAN</tspan></text>
    <text
       xml:space="preserve"
       style="font-size:28px;font-style:normal;font-variant:normal;font-weight:normal;font-stretch:normal;text-align:start;line-height:125%;letter-spacing:0px;word-spacing:0px;writing-mode:lr-tb;text-anchor:start;fill:#000000;fill-opacity:1;stroke:none;font-family:Linux Biolinum O;-inkscape-font-specification:Linux Biolinum O"
       x="422.83051"
       y="324.49341"
       id="text4817"
       sodipodi:linespacing="125%"><tspan
         sodipodi:role="line"
         id="tspan4819"
         x="422.83051"
         y="324.49341">ETHIOPIA</tspan></text>
    <flowRoot
       xml:space="preserve"
       id="flowRoot4821"
       style="font-size:32px;font-style:normal;font-variant:normal;font-weight:normal;font-stretch:normal;text-align:start;line-height:125%;letter-spacing:0px;word-spacing:0px;writing-mode:lr-tb;text-anchor:start;fill:#000000;fill-opacity:1;stroke:none;font-family:Linux Biolinum O;-inkscape-font-specification:Linux Biolinum O"><flowRegion
         id="flowRegion4823"><rect
           id="rect4825"
           width="604.57343"
           height="260.25095"
           x="-42.653954"
           y="70.424202"
           style="font-size:32px;font-style:normal;font-variant:normal;font-weight:normal;font-stretch:normal;text-align:start;line-height:125%;writing-mode:lr-tb;text-anchor:start;font-family:Linux Biolinum O;-inkscape-font-specification:Linux Biolinum O" /></flowRegion><flowPara
         id="flowPara4829" /></flowRoot>  </g>
  <g
     inkscape:groupmode="layer"
     id="layer9"
     inkscape:label="daatsiin"
     transform="translate(-1.6514275,-0.7797565)"
     style="display:inline">
    <text
       xml:space="preserve"
       style="font-size:32px;font-style:normal;font-variant:normal;font-weight:normal;font-stretch:normal;text-align:start;line-height:125%;letter-spacing:0px;word-spacing:0px;writing-mode:lr-tb;text-anchor:start;fill:#dd00e8;fill-opacity:1;stroke:none;font-family:Linux Biolinum O;-inkscape-font-specification:Linux Biolinum O"
       x="170.41273"
       y="122.45523"
       id="text6450"
       sodipodi:linespacing="125%"><tspan
         sodipodi:role="line"
         id="tspan6452"
         x="170.41273"
         y="122.45523">   </tspan></text>
    <text
       xml:space="preserve"
       style="font-size:32px;font-style:normal;font-variant:normal;font-weight:normal;font-stretch:normal;text-align:start;line-height:125%;letter-spacing:0px;word-spacing:0px;writing-mode:lr-tb;text-anchor:start;fill:#dd00e8;fill-opacity:1;stroke:none;font-family:Linux Biolinum O;-inkscape-font-specification:Linux Biolinum O"
       x="105.35891"
       y="223.5715"
       id="text6454"
       sodipodi:linespacing="125%"><tspan
         sodipodi:role="line"
         id="tspan6456"
         x="105.35891"
         y="223.5715">   </tspan></text>
    <text
       xml:space="preserve"
       style="font-size:20px;font-style:normal;font-variant:normal;font-weight:normal;font-stretch:normal;text-align:start;line-height:125%;letter-spacing:0px;word-spacing:0px;writing-mode:lr-tb;text-anchor:start;fill:#000000;fill-opacity:1;stroke:none;font-family:Linux Biolinum O;-inkscape-font-specification:Linux Biolinum O"
       x="403.758"
       y="17.803431"
       id="text6458"
       sodipodi:linespacing="125%"><tspan
         sodipodi:role="line"
         id="tspan6460"
         x="403.758"
         y="17.803431"
         style="font-size:20px;font-style:normal;font-variant:normal;font-weight:normal;font-stretch:normal;text-align:start;line-height:125%;writing-mode:lr-tb;text-anchor:start;fill:#dd00e8;fill-opacity:1;font-family:Linux Biolinum O;-inkscape-font-specification:Linux Biolinum O">   Daats'in villages</tspan></text>
  </g>
  <g
     inkscape:groupmode="layer"
     id="layer7"
     inkscape:label="water text"
     style="display:inline"
     transform="translate(-1.6514275,-0.7797565)">
    <text
       xml:space="preserve"
       style="font-size:14px;font-style:normal;font-variant:normal;font-weight:normal;font-stretch:normal;text-align:start;line-height:125%;letter-spacing:0px;word-spacing:0px;writing-mode:lr-tb;text-anchor:start;fill:#006fd0;fill-opacity:1;stroke:none;font-family:Linux Biolinum O;-inkscape-font-specification:Linux Biolinum O"
       x="374.69501"
       y="160.32878"
       id="text4849"
       sodipodi:linespacing="125%"><tspan
         sodipodi:role="line"
         id="tspan4851"
         x="374.69501"
         y="160.32878">Lake Tana</tspan></text>
    <text
       xml:space="preserve"
       style="font-size:14px;font-style:normal;font-variant:normal;font-weight:normal;font-stretch:normal;text-align:start;line-height:125%;letter-spacing:0px;word-spacing:0px;writing-mode:lr-tb;text-anchor:start;fill:#006fd0;fill-opacity:1;stroke:none;font-family:Linux Biolinum O;-inkscape-font-specification:Linux Biolinum O"
       x="37.826096"
       y="209.34276"
       id="text4853"
       sodipodi:linespacing="125%"><tspan
         sodipodi:role="line"
         id="tspan4855"
         x="37.826096"
         y="209.34276">Er Roseires</tspan><tspan
         sodipodi:role="line"
         x="37.826096"
         y="226.84276"
         id="tspan4857">Reservoir</tspan></text>
    <text
       xml:space="preserve"
       style="font-size:14px;font-style:normal;font-variant:normal;font-weight:normal;font-stretch:normal;text-align:start;line-height:125%;letter-spacing:0px;word-spacing:0px;writing-mode:lr-tb;text-anchor:start;fill:#006fd0;fill-opacity:1;stroke:none;font-family:Linux Biolinum O;-inkscape-font-specification:Linux Biolinum O"
       id="text4859"
       sodipodi:linespacing="125%"
       transform="translate(0.23181497,-0.15454331)"><textPath
         xlink:href="#path4927"
         id="textPath4929"><tspan
   id="tspan4861"
   style="fill:#006fd0;fill-opacity:1">Dinder</tspan></textPath></text>
    <text
       xml:space="preserve"
       style="font-size:14px;font-style:normal;font-variant:normal;font-weight:normal;font-stretch:normal;text-align:start;line-height:125%;letter-spacing:0px;word-spacing:0px;writing-mode:lr-tb;text-anchor:start;fill:#006fd0;fill-opacity:1;stroke:none;font-family:Linux Biolinum O;-inkscape-font-specification:Linux Biolinum O"
       id="text4863"
       sodipodi:linespacing="125%"
       transform="translate(3.0908663,-4.3272128)"><textPath
         xlink:href="#path4932"
         id="textPath4934"><tspan
   id="tspan4865"
   style="fill:#006fd0;fill-opacity:1">Albara</tspan></textPath></text>
    <text
       xml:space="preserve"
       style="font-size:14px;font-style:normal;font-variant:normal;font-weight:normal;font-stretch:normal;text-align:start;line-height:125%;letter-spacing:0px;word-spacing:0px;writing-mode:lr-tb;text-anchor:start;fill:#006fd0;fill-opacity:1;stroke:none;font-family:Linux Biolinum O;-inkscape-font-specification:Linux Biolinum O"
       id="text4871"
       sodipodi:linespacing="125%"
       transform="translate(-11.127119,16.072505)"><textPath
         xlink:href="#path4907"
         id="textPath4909"><tspan
   id="tspan4873"
   style="fill:#006fd0;fill-opacity:1">Didessa</tspan></textPath></text>
    <text
       xml:space="preserve"
       style="font-size:14px;font-style:normal;font-variant:normal;font-weight:normal;font-stretch:normal;text-align:start;line-height:125%;letter-spacing:0px;word-spacing:0px;writing-mode:lr-tb;text-anchor:start;fill:#006fd0;fill-opacity:1;stroke:none;font-family:Linux Biolinum O;-inkscape-font-specification:Linux Biolinum O"
       id="text4875"
       sodipodi:linespacing="125%"><textPath
         xlink:href="#path4917"
         id="textPath4919"><tspan
   id="tspan4877"
   style="fill:#006fd0;fill-opacity:1">Blue Nile</tspan></textPath></text>
    <text
       xml:space="preserve"
       style="font-size:14px;font-style:normal;font-variant:normal;font-weight:normal;font-stretch:normal;text-align:start;line-height:125%;letter-spacing:0px;word-spacing:0px;writing-mode:lr-tb;text-anchor:start;fill:#006fd0;fill-opacity:1;stroke:none;font-family:Linux Biolinum O;-inkscape-font-specification:Linux Biolinum O"
       id="text4879"
       sodipodi:linespacing="125%"><textPath
         xlink:href="#path4912"
         id="textPath4914"><tspan
   id="tspan4881"
   style="fill:#006fd0;fill-opacity:1">Dabus</tspan></textPath></text>
    <text
       xml:space="preserve"
       style="font-size:14px;font-style:normal;font-variant:normal;font-weight:normal;font-stretch:normal;text-align:start;line-height:125%;letter-spacing:0px;word-spacing:0px;writing-mode:lr-tb;text-anchor:start;fill:#006fd0;fill-opacity:1;stroke:none;font-family:Linux Biolinum O;-inkscape-font-specification:Linux Biolinum O"
       id="text4883"
       sodipodi:linespacing="125%"><textPath
         xlink:href="#path4922"
         id="textPath4924"><tspan
   id="tspan4885"
   style="fill:#006fd0;fill-opacity:1">Beles</tspan></textPath></text>
    <flowRoot
       xml:space="preserve"
       id="flowRoot4890"
       style="font-size:14px;font-style:normal;font-variant:normal;font-weight:normal;font-stretch:normal;text-align:start;line-height:125%;letter-spacing:0px;word-spacing:0px;writing-mode:lr-tb;text-anchor:start;fill:#000000;fill-opacity:1;stroke:none;font-family:Linux Biolinum O;-inkscape-font-specification:Linux Biolinum O"><flowRegion
         id="flowRegion4892"><rect
           id="rect4894"
           width="48.519711"
           height="14.424779"
           x="468.58676"
           y="417.57709" /></flowRegion><flowPara
         id="flowPara4896" /></flowRoot>    <text
       xml:space="preserve"
       style="font-size:14px;font-style:normal;font-variant:normal;font-weight:normal;font-stretch:normal;text-align:start;line-height:125%;letter-spacing:0px;word-spacing:0px;writing-mode:lr-tb;text-anchor:start;fill:#006fd0;fill-opacity:1;stroke:none;font-family:Linux Biolinum O;-inkscape-font-specification:Linux Biolinum O"
       id="text4898"
       sodipodi:linespacing="125%"
       transform="translate(-0.61817326,-2.472693)"><textPath
         xlink:href="#path4902"
         id="textPath4904"><tspan
   id="tspan4900"
   style="fill:#006fd0;fill-opacity:1">Blue Nile</tspan></textPath></text>
  </g>
</svg>
